<?xml version="1.0" encoding="UTF-8"?>
<!DOCTYPE svg PUBLIC "-//W3C//DTD SVG 1.1//EN" "http://www.w3.org/Graphics/SVG/1.1/DTD/svg11.dtd">
<svg xmlns="http://www.w3.org/2000/svg" version="1.1" width="1200px" height="251px" style="shape-rendering:geometricPrecision; text-rendering:geometricPrecision; image-rendering:optimizeQuality; fill-rule:evenodd; clip-rule:evenodd" xmlns:xlink="http://www.w3.org/1999/xlink">
<g><path style="opacity:0.98" fill="#fefefe" d="M 122.5,0.5 C 166.715,-1.94357 202.882,13.7231 231,47.5C 254.475,82.5954 260.475,120.595 249,161.5C 231.37,210.126 196.87,237.626 145.5,244C 86.5007,247.933 44.334,223.433 19,170.5C 3.03999,126.235 8.37333,84.9016 35,46.5C 57.6986,18.9004 86.8652,3.56703 122.5,0.5 Z M 132.5,53.5 C 168.03,55.5343 188.53,74.201 194,109.5C 197.537,133.025 192.037,154.025 177.5,172.5C 156.573,191.388 132.906,195.888 106.5,186C 81.4812,172.486 69.4812,151.319 70.5,122.5C 70.8179,80.7012 91.4845,57.7012 132.5,53.5 Z"/></g>
<g><path style="opacity:0.973" fill="#fefefe" d="M 285.5,3.5 C 305.167,3.5 324.833,3.5 344.5,3.5C 344.333,37.835 344.5,72.1683 345,106.5C 370.712,72.2437 396.545,38.077 422.5,4C 445.507,3.16688 468.507,3.33354 491.5,4.5C 461.167,43.1667 430.833,81.8333 400.5,120.5C 431.095,160.597 462.261,200.264 494,239.5C 494.483,240.448 494.649,241.448 494.5,242.5C 470.831,242.667 447.164,242.5 423.5,242C 397.333,207.833 371.167,173.667 345,139.5C 344.5,173.832 344.333,208.165 344.5,242.5C 324.833,242.5 305.167,242.5 285.5,242.5C 285.5,162.833 285.5,83.1667 285.5,3.5 Z"/></g>
<g><path style="opacity:0.973" fill="#fefefe" d="M 508.5,3.5 C 570.167,3.5 631.833,3.5 693.5,3.5C 693.5,19.5 693.5,35.5 693.5,51.5C 672.5,51.5 651.5,51.5 630.5,51.5C 630.5,115.167 630.5,178.833 630.5,242.5C 610.833,242.5 591.167,242.5 571.5,242.5C 571.5,178.833 571.5,115.167 571.5,51.5C 550.5,51.5 529.5,51.5 508.5,51.5C 508.5,35.5 508.5,19.5 508.5,3.5 Z"/></g>
<g><path style="opacity:0.977" fill="#fefefe" d="M 791.5,3.5 C 814.408,3.17268 837.242,3.50601 860,4.5C 888.806,83.7544 917.306,163.088 945.5,242.5C 924.823,242.833 904.156,242.5 883.5,241.5C 878.636,228.242 873.969,214.909 869.5,201.5C 840.172,200.333 810.839,200.167 781.5,201C 776.74,214.446 772.073,227.946 767.5,241.5C 747.178,242.5 726.844,242.833 706.5,242.5C 734.631,162.775 762.964,83.1081 791.5,3.5 Z M 824.5,71.5 C 825.497,71.4701 826.164,71.9701 826.5,73C 835.611,100.165 844.611,127.332 853.5,154.5C 834.821,154.833 816.155,154.5 797.5,153.5C 806.907,126.279 815.907,98.9452 824.5,71.5 Z"/></g>
<g><path style="opacity:0.977" fill="#fefefe" d="M 1041.5,3.5 C 1064.08,3.17277 1086.58,3.5061 1109,4.5C 1138.21,83.6195 1166.71,162.953 1194.5,242.5C 1173.83,242.5 1153.17,242.5 1132.5,242.5C 1128.14,228.574 1123.47,214.741 1118.5,201C 1089.16,200.167 1059.83,200.333 1030.5,201.5C 1025.93,215.054 1021.26,228.554 1016.5,242C 996.169,242.5 975.836,242.667 955.5,242.5C 983.377,162.536 1012.04,82.8688 1041.5,3.5 Z M 1074.5,71.5 C 1084.24,98.8809 1093.91,126.381 1103.5,154C 1084.49,154.833 1065.49,154.666 1046.5,153.5C 1055.65,126.064 1064.98,98.7306 1074.5,71.5 Z"/></g>
</svg>
