<?xml version="1.0" encoding="UTF-8"?>
<svg version="1.1" xmlns="http://www.w3.org/2000/svg" width="1200" height="237">
<path d="M0 0 C1.07401314 -0.01467567 1.07401314 -0.01467567 2.16972351 -0.02964783 C4.5438758 -0.05959438 6.9179709 -0.08100203 9.29223633 -0.09985352 C10.10798944 -0.10642534 10.92374256 -0.11299717 11.76421547 -0.11976814 C16.09442026 -0.15238105 20.42460053 -0.17681017 24.75488281 -0.19628906 C28.31157222 -0.21398886 31.86745172 -0.24862026 35.42382812 -0.29882812 C39.7392346 -0.35966671 44.05389991 -0.38985284 48.36971474 -0.39946175 C50.00052834 -0.40792206 51.63132731 -0.4265009 53.26189232 -0.45620537 C65.04643048 -0.6590728 74.1912115 1.36430156 84.93676758 6.20874023 C85.73984344 6.56337845 86.54291931 6.91801666 87.37033081 7.28340149 C115.43794169 20.35634483 135.93349643 45.02476751 146.47241211 73.77416992 C157.13141397 104.60555055 156.2325823 140.85129208 142.08618164 170.45947266 C131.62942867 191.50505866 117.49608707 208.23049092 97.93676758 221.20874023 C96.9802832 221.8494043 96.02379883 222.49006836 95.03833008 223.15014648 C80.24498209 232.41152821 63.40645543 237.5082774 46.02661133 237.54467773 C44.90090225 237.55133453 43.77519318 237.55799133 42.6153717 237.56484985 C40.24115622 237.57493302 37.86691265 237.57966822 35.49267578 237.5793457 C31.90909555 237.58369794 28.32676943 237.62000853 24.7434082 237.65795898 C-7.55155095 237.81877507 -34.27778067 226.17421243 -57.75073242 203.95874023 C-80.47879496 180.13636357 -91.48105646 149.82097948 -91.43823242 117.14624023 C-91.43802094 116.47231232 -91.43780945 115.7983844 -91.43759155 115.10403442 C-91.33483748 82.12095111 -78.93954382 52.16006954 -55.59838867 28.70922852 C-41.66744533 15.09288344 -20.16473082 0.24717809 0 0 Z M-8.06323242 61.20874023 C-8.67682617 61.65862305 -9.29041992 62.10850586 -9.92260742 62.57202148 C-22.08432613 72.12381383 -28.00067102 87.57818569 -30.62573242 102.38061523 C-33.18807607 124.80112219 -30.44145457 147.44109008 -16.25073242 165.74389648 C-5.51049447 177.84584318 9.287111 184.31285223 25.18676758 186.02124023 C43.35406906 187.05567733 58.72378514 181.86741393 72.97192383 170.86499023 C85.30214684 159.81815012 92.05159383 142.66665965 93.12133789 126.40258789 C94.06673312 104.94755738 91.3240763 84.1801717 77.06176758 67.14624023 C65.66960741 55.46425994 50.49383712 49.19981646 34.30004883 48.21264648 C18.69339524 48.19452029 4.52379241 51.57025075 -8.06323242 61.20874023 Z " fill="#000000" transform="translate(102.063232421875,-0.208740234375)"/>
<path d="M0 0 C19.47 0 38.94 0 59 0 C59.33 32.67 59.66 65.34 60 99 C67.44353873 89.92441298 67.44353873 89.92441298 74.5625 80.625 C79.26842345 74.2991307 84.02581354 68.01497028 88.8125 61.75 C94.20148839 54.69239247 99.55567512 47.61025675 104.875 40.5 C109.68636134 34.07019849 114.52936635 27.66975297 119.44140625 21.31640625 C121.45893681 18.70658811 123.46349659 16.08709242 125.46484375 13.46484375 C126.06087402 12.68391357 126.6569043 11.9029834 127.27099609 11.09838867 C128.44763782 9.55599064 129.62376108 8.01319691 130.79931641 6.4699707 C131.33089355 5.77347412 131.8624707 5.07697754 132.41015625 4.359375 C133.12377319 3.42303223 133.12377319 3.42303223 133.85180664 2.46777344 C135 1 135 1 136 0 C138.14743549 -0.09425595 140.29801026 -0.11742648 142.44750977 -0.11352539 C143.12065216 -0.11367142 143.79379456 -0.11381744 144.48733521 -0.1139679 C146.72205784 -0.11326878 148.9566981 -0.10547652 151.19140625 -0.09765625 C152.73697362 -0.09579206 154.28254157 -0.09436816 155.82810974 -0.09336853 C159.90357077 -0.0895434 163.97899637 -0.07971317 168.05444336 -0.06866455 C172.21011882 -0.05845032 176.36579999 -0.05387089 180.52148438 -0.04882812 C188.68100587 -0.03809089 196.84049853 -0.02101454 205 0 C202.62637746 4.04040838 199.98181172 7.71651689 197.0625 11.375 C196.58232422 11.98150391 196.10214844 12.58800781 195.60742188 13.21289062 C191.58495655 18.28650471 187.53482108 23.33821303 183.48486328 28.38989258 C178.73595008 34.31721708 174.04253502 40.28716721 169.35888672 46.26611328 C166.6171488 49.76446446 163.86925044 53.2579795 161.12255859 56.75244141 C158.84143761 59.65502423 156.56171737 62.55868273 154.28515625 65.46484375 C149.05798861 72.13398867 143.79239442 78.77024943 138.49169922 85.38110352 C134.57158075 90.27456742 130.66920308 95.18183101 126.8215332 100.13256836 C124.82256324 102.70320016 122.80709004 105.22517024 120.6875 107.69921875 C120.0275 108.47910156 119.3675 109.25898437 118.6875 110.0625 C118.11386719 110.71347656 117.54023438 111.36445312 116.94921875 112.03515625 C115.76004091 113.99200318 115.76004091 113.99200318 116.45703125 116.27734375 C118.58540841 120.03298648 121.22619223 123.20357929 124 126.5 C125.18624778 127.93377836 126.37112904 129.36868835 127.5546875 130.8046875 C128.14088867 131.51463867 128.72708984 132.22458984 129.33105469 132.95605469 C131.65457888 135.80165804 133.89943522 138.70249995 136.125 141.625 C140.89618234 147.87609674 145.74585201 154.06196348 150.61328125 160.23828125 C151.98417682 161.97989788 153.35199991 163.72387885 154.71875 165.46875 C158.91207981 170.81997893 163.11942756 176.15784254 167.38085938 181.45507812 C172.15236754 187.38671768 176.83525876 193.37345161 181.4375 199.4375 C185.80141898 205.18394941 190.25119019 210.84634544 194.8125 216.4375 C195.62195068 217.43064209 195.62195068 217.43064209 196.44775391 218.44384766 C198.81738689 221.34542416 201.19638969 224.23848219 203.59375 227.1171875 C204.3259375 228.00664062 205.058125 228.89609375 205.8125 229.8125 C206.43769531 230.56144531 207.06289063 231.31039062 207.70703125 232.08203125 C209 234 209 234 209 237 C199.95097881 237.34932699 190.90431365 237.61491973 181.84999466 237.77718258 C177.64413794 237.85511452 173.4429274 237.96053866 169.23974609 238.1315918 C139.79533109 239.29880661 139.79533109 239.29880661 133.25878906 233.86230469 C130.54279302 230.86501959 128.67841066 227.67010496 127.00366211 224.00462341 C125.22966158 220.46139611 122.70149305 217.4694812 120.25 214.375 C119.2485744 213.0336152 118.24824689 211.69140829 117.25 210.34765625 C113.61799878 205.47614472 109.93572854 200.64342593 106.25 195.8125 C105.24054321 194.48919678 105.24054321 194.48919678 104.21069336 193.13916016 C102.83315744 191.33370744 101.45547074 189.52836976 100.07763672 187.72314453 C97.32860417 184.12000598 94.58291643 180.51432537 91.8371582 176.90869141 C87.37050844 171.04328493 82.90386509 165.17791669 78.421875 159.32421875 C77.85364014 158.58204102 77.28540527 157.83986328 76.69995117 157.07519531 C75.66682864 155.72645208 74.63320532 154.37809216 73.59887695 153.03027344 C69.01982141 147.0533355 64.51860702 141.02480936 60 135 C59.67 168.66 59.34 202.32 59 237 C39.53 237 20.06 237 0 237 C0 158.79 0 80.58 0 0 Z " fill="#000000" transform="translate(286,0)"/>
<path d="M0 0 C1.22355698 0.00222061 2.44711395 0.00444122 3.70774841 0.00672913 C4.38089081 0.0065831 5.0540332 0.00643707 5.74757385 0.00628662 C7.98229649 0.00698573 10.21693674 0.01477799 12.4516449 0.02259827 C13.99721226 0.02446245 15.54278022 0.02588635 17.08834839 0.02688599 C21.16380941 0.03071112 25.23923502 0.04054135 29.31468201 0.05158997 C33.47035747 0.0618042 37.62603864 0.06638363 41.78172302 0.07142639 C49.94124452 0.08216363 58.10073718 0.09923998 66.26023865 0.12025452 C71.7459506 14.64202052 77.13531802 29.19354852 82.37223816 43.80686951 C83.49944987 46.9520403 84.62885841 50.09641539 85.7587738 53.24061584 C87.40119088 57.81099667 89.04304097 62.38158055 90.68455505 66.95228577 C95.15891104 79.4074231 99.64616498 91.85791583 104.13523865 104.30775452 C104.3654987 104.94639687 104.59575874 105.58503922 104.83299637 106.24303436 C111.74003664 125.39946119 118.67413243 144.54589473 125.63523865 163.68275452 C126.04381104 164.80648468 126.45238342 165.93021484 126.87333679 167.08799744 C130.86395228 178.06343244 134.85980303 189.03686081 138.88209534 200.00073242 C140.40296484 204.14738651 141.92052556 208.2952477 143.43778992 212.44322205 C144.48492198 215.30115779 145.53729683 218.15712618 146.58982849 221.01307678 C147.21462282 222.72057431 147.83915114 224.42816921 148.46336365 226.13587952 C148.74976715 226.90800278 149.03617065 227.68012604 149.33125305 228.47564697 C150.42794871 231.49060239 151.26023865 233.88518304 151.26023865 237.12025452 C130.80023865 237.12025452 110.34023865 237.12025452 89.26023865 237.12025452 C87.13586365 231.11837952 85.01148865 225.11650452 82.82273865 218.93275452 C82.15315125 217.04661438 81.48356384 215.16047424 80.79368591 213.21717834 C80.26273673 211.71230898 79.73203948 210.20735069 79.2016449 208.70228577 C78.9260675 207.92896912 78.65049011 207.15565247 78.36656189 206.35890198 C78.10274719 205.60830505 77.8389325 204.85770813 77.56712341 204.08436584 C77.22403893 203.11506889 77.22403893 203.11506889 76.87402344 202.12619019 C76.17283318 199.83460107 75.73022426 197.47018259 75.26023865 195.12025452 C46.22023865 195.45025452 17.18023865 195.78025452 -12.73976135 196.12025452 C-17.35976135 209.65025452 -21.97976135 223.18025452 -26.73976135 237.12025452 C-46.86976135 237.12025452 -66.99976135 237.12025452 -87.73976135 237.12025452 C-87.05239178 232.30866749 -86.51515596 228.97151771 -84.92408752 224.59877014 C-84.35913071 223.03060295 -84.35913071 223.03060295 -83.78276062 221.43075562 C-83.37025055 220.30735275 -82.95774048 219.18394989 -82.5327301 218.02650452 C-82.10056183 216.8329686 -81.66839355 215.63943268 -81.22312927 214.409729 C-80.04514072 211.1568533 -78.85884578 207.90706368 -77.67105484 204.65775681 C-76.41410541 201.21454659 -75.16514091 197.76844193 -73.91529846 194.32264709 C-71.35151065 187.25833862 -68.77903114 180.19722081 -66.20423889 173.13691711 C-64.01227153 167.12604901 -61.82529598 161.11336479 -59.63819885 155.10072327 C-58.82855859 152.87497041 -58.01890698 150.64922168 -57.20924377 148.42347717 C-56.81240387 147.33254761 -56.41556396 146.24161804 -56.00669861 145.11763 C-54.79127803 141.77757161 -53.57477746 138.43790794 -52.35816956 135.09828186 C-46.38700382 118.69885771 -40.4781615 102.27761177 -34.5867157 85.84944153 C-26.90783435 64.43775303 -19.1938723 43.040088 -11.36476135 21.68275452 C-10.9774585 20.62348755 -10.59015564 19.56422058 -10.19111633 18.47285461 C-9.11922287 15.54299709 -8.04351952 12.61457233 -6.96632385 9.68666077 C-6.49310699 8.39174965 -6.49310699 8.39174965 -6.0103302 7.07067871 C-3.45459185 0.15163009 -3.45459185 0.15163009 0 0 Z M30.26023865 66.12025452 C26.73635856 76.64562733 23.21568744 87.17206739 19.69915009 97.69989586 C18.06631621 102.58794436 16.43236421 107.47561322 14.79588318 112.36244202 C13.21769161 117.07534294 11.64240286 121.78920478 10.06915283 126.50375748 C9.46733664 128.30550046 8.86446154 130.10689009 8.26052856 131.90792465 C7.41716115 134.42358488 6.57751106 136.94045631 5.73875427 139.45765686 C5.48628433 140.20787613 5.23381439 140.9580954 4.97369385 141.73104858 C3.70245189 145.34731043 3.70245189 145.34731043 3.26023865 149.12025452 C21.74023865 149.12025452 40.22023865 149.12025452 59.26023865 149.12025452 C57.96889684 143.30921637 56.65436696 137.8835713 54.73826599 132.30555725 C54.49413467 131.58247879 54.25000336 130.85940033 53.99847412 130.1144104 C53.20213365 127.75936339 52.39922978 125.40661365 51.59617615 123.05384827 C51.03811885 121.40775192 50.48047775 119.76151442 49.92323303 118.11514282 C48.46424962 113.80824223 46.99966422 109.50326762 45.53385925 105.19868469 C44.03558406 100.79544694 42.54267653 96.39039031 41.04930115 91.98548889 C38.12483094 83.36196692 35.19443268 74.74047233 32.26023865 66.12025452 C31.60023865 66.12025452 30.94023865 66.12025452 30.26023865 66.12025452 Z " fill="#000000" transform="translate(794.7397613525391,-0.1202545166015625)"/>
<path d="M0 0 C1.22355698 0.00222061 2.44711395 0.00444122 3.70774841 0.00672913 C4.38089081 0.0065831 5.0540332 0.00643707 5.74757385 0.00628662 C7.98229649 0.00698573 10.21693674 0.01477799 12.4516449 0.02259827 C13.99721226 0.02446245 15.54278022 0.02588635 17.08834839 0.02688599 C21.16380941 0.03071112 25.23923502 0.04054135 29.31468201 0.05158997 C33.47035747 0.0618042 37.62603864 0.06638363 41.78172302 0.07142639 C49.94124452 0.08216363 58.10073718 0.09923998 66.26023865 0.12025452 C69.50956688 7.75046469 72.53852241 15.4167009 75.30711365 23.23353577 C75.67514603 24.26407578 76.04317841 25.29461578 76.42236328 26.35638428 C77.21062782 28.56454516 77.99750481 30.77320179 78.78309631 32.98231506 C80.90313114 38.94336098 83.03383585 44.90059665 85.1625824 50.85853577 C85.59463486 52.06873383 86.02668732 53.27893188 86.47183228 54.52580261 C90.47501749 65.73502292 94.51763866 76.92972998 98.57273865 88.12025452 C99.96882414 91.97432989 101.36462712 95.82850749 102.76023865 99.68275452 C103.11650833 100.66660629 103.47277802 101.65045807 103.83984375 102.66412354 C106.73699741 110.66780533 109.62495313 118.67478776 112.51023865 126.68275452 C112.7363275 127.31022583 112.96241634 127.93769714 113.19535637 128.58418274 C114.12042404 131.15155145 115.04547813 133.71892506 115.9705267 136.28630066 C124.12159646 158.90811818 132.2960144 181.52128603 140.51023865 204.12025452 C140.94260834 205.3105426 141.37497803 206.50083069 141.82044983 207.72718811 C143.03382716 211.06688168 144.24836596 214.40615015 145.46336365 217.74525452 C145.82063034 218.72872864 146.17789703 219.71220276 146.54598999 220.72547913 C146.87611588 221.63177063 147.20624176 222.53806213 147.54637146 223.47181702 C147.83087158 224.25379456 148.1153717 225.03577209 148.40849304 225.84144592 C149.01561249 227.4657678 149.6745982 229.07109537 150.36735535 230.66078186 C151.26023865 233.12025452 151.26023865 233.12025452 151.26023865 237.12025452 C130.80023865 237.12025452 110.34023865 237.12025452 89.26023865 237.12025452 C84.64023865 223.59025452 80.02023865 210.06025452 75.26023865 196.12025452 C46.22023865 195.79025452 17.18023865 195.46025452 -12.73976135 195.12025452 C-13.72976135 198.75025452 -14.71976135 202.38025452 -15.73976135 206.12025452 C-16.53182822 208.66140422 -17.34479363 211.19620009 -18.18507385 213.72181702 C-18.40041779 214.36976227 -18.61576172 215.01770752 -18.83763123 215.68528748 C-19.28482019 217.02819538 -19.73347614 218.37061568 -20.18360901 219.71253967 C-20.8748437 221.77534255 -21.55949681 223.84025558 -22.2436676 225.90541077 C-22.68208409 227.21934157 -23.12087186 228.53314857 -23.56007385 229.84681702 C-23.95468811 231.02840393 -24.34930237 232.20999084 -24.75587463 233.42738342 C-25.73976135 236.12025452 -25.73976135 236.12025452 -26.73976135 237.12025452 C-28.64219897 237.21416748 -30.54814594 237.2376911 -32.45289612 237.23377991 C-33.67408646 237.23370438 -34.89527679 237.23362885 -36.1534729 237.23355103 C-37.49603821 237.22844363 -38.83860311 237.22322762 -40.1811676 237.21791077 C-41.54737293 237.21604651 -42.91357892 237.21462264 -44.27978516 237.21362305 C-47.8817783 237.20979846 -51.48373135 237.19996869 -55.08570862 237.18891907 C-58.7587988 237.17870368 -62.43189544 237.17412515 -66.10499573 237.16908264 C-73.31660258 237.15834636 -80.52817636 237.14127065 -87.73976135 237.12025452 C-86.28119389 229.64110203 -83.9469621 222.6979479 -81.3296051 215.54994202 C-80.8903772 214.3365918 -80.45114929 213.12324158 -79.99861145 211.87312317 C-78.81111253 208.59287319 -77.61691724 205.31509884 -76.4214592 202.03774261 C-75.16643534 198.59326704 -73.91785125 195.14645897 -72.66871643 191.69984436 C-70.64787438 186.12599623 -68.62378535 180.5533389 -66.59718323 174.98158264 C-64.09002417 168.08791647 -61.59170686 161.19108553 -59.09913635 154.29212952 C-58.74622025 153.31535248 -58.39330414 152.33857544 -58.0296936 151.3321991 C-57.3365117 149.41351932 -56.64336028 147.49482853 -55.95024109 145.5761261 C-54.2397961 140.84284552 -52.52687017 136.1104632 -50.8139801 131.37806702 C-46.62095283 119.79271571 -42.43024199 108.20652715 -38.23976135 96.62025452 C-36.83353348 92.73222568 -35.4272832 88.84420495 -34.02101135 84.95619202 C-33.67206314 83.99142944 -33.32311493 83.02666687 -32.96359253 82.03266907 C-30.75849517 75.93625133 -28.55298463 69.83998322 -26.34718323 63.74382019 C-25.21624392 60.61818789 -24.08541621 57.49251523 -22.9546051 54.36683655 C-21.4992906 50.3442254 -20.04350979 46.32178344 -18.5874176 42.29945374 C-15.61554072 34.08782114 -12.64637064 25.87537829 -9.70851135 17.65150452 C-9.2805426 16.45509338 -8.85257385 15.25868225 -8.41163635 14.02601624 C-7.6590826 11.91917929 -6.90887889 9.8115006 -6.16163635 7.70277405 C-5.68983948 6.38188782 -5.68983948 6.38188782 -5.20851135 5.03431702 C-4.81309143 3.91984192 -4.81309143 3.91984192 -4.40968323 2.78285217 C-3.30693317 0.04607087 -3.11421799 0.13669029 0 0 Z M31.26023865 66.12025452 C28.49403084 72.85500121 25.97952585 79.63693003 23.65086365 86.53431702 C23.3225354 87.49979965 22.99420715 88.46528229 22.65592957 89.46002197 C21.60458203 92.55416294 20.55720517 95.64962868 19.51023865 98.74525452 C18.79031383 100.86858869 18.07026144 102.99187961 17.3500824 105.11512756 C15.61980063 110.21947354 13.89330648 115.32508948 12.16868591 120.43135071 C11.35837805 122.8297727 10.54692883 125.22780348 9.73484802 127.62562561 C8.57213356 131.05982376 7.41488512 134.49583405 6.26023865 137.93275452 C5.94087341 138.87779846 5.62150818 139.82284241 5.29246521 140.79652405 C3.81128753 144.86888571 3.81128753 144.86888571 3.26023865 149.12025452 C22.07023865 149.12025452 40.88023865 149.12025452 60.26023865 149.12025452 C56.86755946 138.94084435 56.86755946 138.94084435 53.47142029 128.7625885 C50.7073124 120.48403046 47.95426529 112.20203705 45.22515869 103.91186523 C43.86583873 99.78451138 42.50197443 95.65866566 41.13771057 91.53294373 C40.46911925 89.50697911 39.80267741 87.48030389 39.13838196 85.45292664 C38.20266305 82.59802289 37.25959591 79.74564425 36.31492615 76.89369202 C36.03519455 76.03385208 35.75546295 75.17401215 35.46725464 74.28811646 C35.20541885 73.50230698 34.94358307 72.7164975 34.67381287 71.90687561 C34.44797516 71.22048004 34.22213745 70.53408447 33.98945618 69.82688904 C33.29373468 67.90548332 33.29373468 67.90548332 31.26023865 66.12025452 Z " fill="#000000" transform="translate(1043.739761352539,-0.1202545166015625)"/>
<path d="M0 0 C61.05 0 122.1 0 185 0 C185 15.18 185 30.36 185 46 C164.21 46 143.42 46 122 46 C122 109.03 122 172.06 122 237 C102.53 237 83.06 237 63 237 C63 173.97 63 110.94 63 46 C42.21 46 21.42 46 0 46 C0 30.82 0 15.64 0 0 Z " fill="#000000" transform="translate(509,0)"/>
</svg>
