<?xml version="1.0" encoding="UTF-8"?>
<svg version="1.1" xmlns="http://www.w3.org/2000/svg" width="1200" height="247">
<path d="M0 0 C23.85440807 21.16295244 39.04294506 49.1232831 41.52734375 81.2421875 C43.58865387 119.97150531 33.40499849 152.40782504 7.4453125 181.58203125 C1.20923248 188.16520292 -5.95028619 193.2508485 -13.47265625 198.2421875 C-14.42914063 198.88285156 -15.385625 199.52351562 -16.37109375 200.18359375 C-29.3826961 208.32951287 -44.36543908 212.98218953 -59.47265625 215.2421875 C-60.67921875 215.42523438 -61.88578125 215.60828125 -63.12890625 215.796875 C-95.27648048 219.65597041 -127.6410914 212.96590929 -153.91015625 193.7421875 C-175.14699876 177.00836905 -190.52219551 156.52957565 -198.34765625 130.4921875 C-198.63443237 129.53820068 -198.63443237 129.53820068 -198.92700195 128.56494141 C-202.07269728 117.2644272 -202.86297003 105.86410499 -202.84765625 94.1796875 C-202.84744476 93.50575958 -202.84723328 92.83183167 -202.84701538 92.13748169 C-202.74426131 59.15439837 -190.34896765 29.19351681 -167.0078125 5.74267578 C-122.88111414 -37.38752272 -47.21034884 -39.3292047 0 0 Z M-119.47265625 38.2421875 C-120.08625 38.69207031 -120.69984375 39.14195313 -121.33203125 39.60546875 C-133.49374995 49.15726109 -139.41009485 64.61163295 -142.03515625 79.4140625 C-144.5974999 101.83456945 -141.8508784 124.47453734 -127.66015625 142.77734375 C-116.9199183 154.87929044 -102.12231283 161.34629949 -86.22265625 163.0546875 C-68.05535477 164.0891246 -52.68563869 158.9008612 -38.4375 147.8984375 C-26.10727699 136.85159738 -19.35783 119.70010692 -18.28808594 103.43603516 C-17.34269071 81.98100465 -20.08534753 61.21361897 -34.34765625 44.1796875 C-45.73981642 32.49770721 -60.91558671 26.23326372 -77.109375 25.24609375 C-92.71602859 25.22796756 -106.88563142 28.60369802 -119.47265625 38.2421875 Z " fill="#00B8DB" transform="translate(213.47265625,28.7578125)"/>
<path d="M0 0 C19.47 0 38.94 0 59 0 C59.33 33.33 59.66 66.66 60 101 C67.44353873 91.92441298 67.44353873 91.92441298 74.5625 82.625 C79.26842345 76.2991307 84.02581354 70.01497028 88.8125 63.75 C94.84375169 55.85126201 100.82355705 47.91579458 106.77661133 39.95800781 C115.36020159 28.49500387 115.36020159 28.49500387 119.2980957 23.70410156 C121.43809828 20.95648012 122.97556172 18.15012488 124.52368164 15.03417969 C127.79449031 9.01560134 131.19679318 3.8181448 137 0 C147.6139102 -3.10753878 159.10202126 -1.98838295 170.01574707 -1.37329102 C174.07675321 -1.16654591 178.14029816 -1.07691639 182.20507812 -0.9765625 C190.14363911 -0.76371179 198.06990865 -0.42375304 206 0 C204.41763638 4.22360877 202.52981013 7.01441103 199.5625 10.4375 C198.6545212 11.49982689 197.74833796 12.56369052 196.84375 13.62890625 C196.37453125 14.18078613 195.9053125 14.73266602 195.421875 15.30126953 C193.07160727 18.1091615 190.81567956 20.98900913 188.5625 23.875 C188.10560791 24.45950928 187.64871582 25.04401855 187.17797852 25.64624023 C186.24852603 26.83636301 185.31957176 28.02687504 184.39111328 29.21777344 C182.1015475 32.15105357 179.80029929 35.07513509 177.5 38 C174.75941048 41.48647692 172.01990362 44.97378166 169.28515625 48.46484375 C164.05509493 55.13768061 158.786497 61.77754236 153.48291016 68.39208984 C148.73497767 74.3189464 144.04193285 80.28793592 139.35888672 86.26611328 C137.53295549 88.59593067 135.70431158 90.92360403 133.87402344 93.25 C132.964644 94.4082146 132.0577023 95.56834774 131.15332031 96.73046875 C128.75345345 99.80784315 126.31098253 102.83464753 123.79296875 105.81640625 C123.27347656 106.44353516 122.75398438 107.07066406 122.21875 107.71679688 C121.21905208 108.92178991 120.20519767 110.11521598 119.17578125 111.29492188 C117.62947971 113.0952657 117.62947971 113.0952657 116 116 C116.66676815 120.88701832 120.90080024 124.81688021 124 128.5 C125.18624778 129.93377836 126.37112904 131.36868835 127.5546875 132.8046875 C128.14088867 133.51463867 128.72708984 134.22458984 129.33105469 134.95605469 C131.65457888 137.80165804 133.89943522 140.70249995 136.125 143.625 C140.89618234 149.87609674 145.74585201 156.06196348 150.61328125 162.23828125 C151.98417682 163.97989788 153.35199991 165.72387885 154.71875 167.46875 C158.91207981 172.81997893 163.11942756 178.15784254 167.38085938 183.45507812 C172.15236754 189.38671768 176.83525876 195.37345161 181.4375 201.4375 C185.80141898 207.18394941 190.25119019 212.84634544 194.8125 218.4375 C195.62195068 219.43064209 195.62195068 219.43064209 196.44775391 220.44384766 C198.81738689 223.34542416 201.19638969 226.23848219 203.59375 229.1171875 C204.3259375 230.00664062 205.058125 230.89609375 205.8125 231.8125 C206.43769531 232.56144531 207.06289063 233.31039062 207.70703125 234.08203125 C209 236 209 236 209 239 C199.95097881 239.34932699 190.90431365 239.61491973 181.84999466 239.77718258 C177.64413794 239.85511452 173.4429274 239.96053866 169.23974609 240.1315918 C139.79533109 241.29880661 139.79533109 241.29880661 133.25878906 235.86230469 C130.54279302 232.86501959 128.67841066 229.67010496 127.00366211 226.00462341 C125.22966158 222.46139611 122.70149305 219.4694812 120.25 216.375 C119.2485744 215.0336152 118.24824689 213.69140829 117.25 212.34765625 C113.61799878 207.47614472 109.93572854 202.64342593 106.25 197.8125 C105.24054321 196.48919678 105.24054321 196.48919678 104.21069336 195.13916016 C102.83315744 193.33370744 101.45547074 191.52836976 100.07763672 189.72314453 C97.32860417 186.12000598 94.58291643 182.51432537 91.8371582 178.90869141 C87.37050844 173.04328493 82.90386509 167.17791669 78.421875 161.32421875 C77.85364014 160.58204102 77.28540527 159.83986328 76.69995117 159.07519531 C75.66682864 157.72645208 74.63320532 156.37809216 73.59887695 155.03027344 C69.01982141 149.0533355 64.51860702 143.02480936 60 137 C59.67 170.66 59.34 204.32 59 239 C39.53 239 20.06 239 0 239 C0 160.13 0 81.26 0 0 Z " fill="#00B7DB" transform="translate(286,4)"/>
<path d="M0 0 C22.44 0 44.88 0 68 0 C73.62461258 13.4990702 73.62461258 13.4990702 75.32983398 18.26928711 C75.91477631 19.89820389 75.91477631 19.89820389 76.51153564 21.56002808 C76.91893982 22.70424225 77.32634399 23.84845642 77.74609375 25.02734375 C78.42661525 26.92608064 79.10713765 28.8248172 79.78769493 30.72354126 C80.50890117 32.73749363 81.22859819 34.75197933 81.94784546 36.76663208 C83.46689755 41.02130432 84.99047806 45.27434619 86.51489258 49.52709961 C87.03856764 50.98817133 87.56223397 52.44924617 88.08589172 53.9103241 C88.34697535 54.63878225 88.60805897 55.36724041 88.87705421 56.11777306 C89.6757308 58.34669816 90.47400133 60.57576827 91.2721405 62.80488586 C96.33156078 76.93456006 101.4136645 91.05600767 106.50620651 105.17377472 C107.1896123 107.06835584 107.87290053 108.96297933 108.55618286 110.85760498 C115.13652684 129.10200578 121.74549755 147.33590704 128.375 165.5625 C128.78402557 166.68749908 129.19305115 167.81249817 129.61447144 168.97158813 C133.60462975 179.94574107 137.60003319 190.91788414 141.62185669 201.88047791 C143.14272619 206.02713199 144.66028691 210.17499319 146.17755127 214.32296753 C147.22468334 217.18090327 148.27705818 220.03687166 149.32958984 222.89282227 C149.95438417 224.60031979 150.57891249 226.30791469 151.203125 228.015625 C151.4895285 228.78774826 151.77593201 229.55987152 152.0710144 230.35539246 C153.16771006 233.37034787 154 235.76492852 154 239 C133.54 239 113.08 239 92 239 C89.875625 232.998125 87.75125 226.99625 85.5625 220.8125 C84.8929126 218.92635986 84.2233252 217.04021973 83.53344727 215.09692383 C83.00249808 213.59205446 82.47180083 212.08709618 81.94140625 210.58203125 C81.66582886 209.8087146 81.39025146 209.03539795 81.10632324 208.23864746 C80.84250854 207.48805054 80.57869385 206.73745361 80.30688477 205.96411133 C79.96380028 204.99481438 79.96380028 204.99481438 79.61378479 204.00593567 C78.91259454 201.71434656 78.46998562 199.34992808 78 197 C48.96 197.33 19.92 197.66 -10 198 C-14.62 211.53 -19.24 225.06 -24 239 C-44.13 239 -64.26 239 -85 239 C-84.31263042 234.18841297 -83.77539461 230.85126319 -82.18432617 226.47851562 C-81.61936935 224.91034843 -81.61936935 224.91034843 -81.04299927 223.3105011 C-80.6304892 222.18709824 -80.21797913 221.06369537 -79.79296875 219.90625 C-79.36080048 218.71271408 -78.9286322 217.51917816 -78.48336792 216.28947449 C-77.30537937 213.03659878 -76.11908442 209.78680916 -74.93129349 206.53750229 C-73.67434406 203.09429207 -72.42537956 199.64818741 -71.17553711 196.20239258 C-68.6117493 189.1380841 -66.03926979 182.07696629 -63.46447754 175.0166626 C-61.27251018 169.00579449 -59.08553683 162.99310948 -56.8984375 156.98046875 C-56.08887782 154.75496032 -55.27930758 152.52945574 -54.46972656 150.30395508 C-54.07289673 149.21305573 -53.67606689 148.12215637 -53.26721191 146.99819946 C-52.05092313 143.65568532 -50.8336136 140.31354413 -49.61621094 136.97143555 C-42.9261605 118.59632255 -36.31325341 100.1939951 -29.71105957 81.78719711 C-19.91732969 54.48381752 -9.98126684 27.23570487 0 0 Z M33 68 C29.47611991 78.52537281 25.95544879 89.05181287 22.43891144 99.57964134 C20.80607756 104.46768985 19.17212556 109.35535871 17.53564453 114.2421875 C15.95745297 118.95508842 14.38216421 123.66895026 12.80891418 128.38350296 C12.20709799 130.18524594 11.60422289 131.98663558 11.00028992 133.78767014 C10.1569225 136.30333036 9.31727241 138.82020179 8.47851562 141.33740234 C8.22604568 142.08762161 7.97357574 142.83784088 7.7134552 143.61079407 C6.44221324 147.22705591 6.44221324 147.22705591 6 151 C24.48 151 42.96 151 62 151 C60.70865819 145.18896185 59.39412831 139.76331678 57.47802734 134.18530273 C57.23389603 133.46222427 56.98976471 132.73914581 56.73823547 131.99415588 C55.941895 129.63910887 55.13899113 127.28635913 54.3359375 124.93359375 C53.7778802 123.28749741 53.2202391 121.64125991 52.66299438 119.99488831 C51.20401097 115.68798772 49.73942557 111.3830131 48.27362061 107.07843018 C46.77534541 102.67519242 45.28243788 98.2701358 43.7890625 93.86523438 C40.8645923 85.24171241 37.93419404 76.62021782 35 68 C34.34 68 33.68 68 33 68 Z " fill="#00B8DB" transform="translate(792,4)"/>
<path d="M0 0 C1.78204079 0.00333092 1.78204079 0.00333092 3.6000824 0.00672913 C4.58053528 0.00651009 4.58053528 0.00651009 5.58079529 0.00628662 C7.75058766 0.00698569 9.92029517 0.01477774 12.09007263 0.02259827 C13.59079949 0.02446247 15.09152696 0.02588636 16.59225464 0.02688599 C20.54934865 0.03071099 24.50640616 0.04054112 28.46348572 0.05158997 C32.49851488 0.06180446 36.53354991 0.06638369 40.56858826 0.07142639 C48.49113108 0.08216341 56.41364419 0.09923962 64.33616638 0.12025452 C67.39247938 6.7240303 70.00224214 13.42918254 72.46897888 20.27259827 C73.05241058 21.87919563 73.05241058 21.87919563 73.64762878 23.51824951 C74.92201156 27.0302659 76.19166605 30.54397061 77.46116638 34.05775452 C78.36084699 36.54074503 79.26075279 39.02365395 80.16087341 41.50648499 C87.73468442 62.40616509 95.26262011 83.32243646 102.78337097 104.24125671 C115.00025018 138.21927034 127.25214406 172.18457746 139.58616638 206.12025452 C140.01862671 207.31081451 140.45108704 208.50137451 140.89665222 209.72801208 C142.10993304 213.06743281 143.32438096 216.40642636 144.53929138 219.74525452 C144.89655304 220.72871353 145.2538147 221.71217255 145.62190247 222.72543335 C145.95203339 223.63173996 146.28216431 224.53804657 146.62229919 225.47181702 C146.90679932 226.25379456 147.19129944 227.03577209 147.48442078 227.84144592 C148.09154023 229.4657678 148.75052594 231.07109537 149.44328308 232.66078186 C150.33616638 235.12025452 150.33616638 235.12025452 150.33616638 239.12025452 C129.87616638 239.12025452 109.41616638 239.12025452 88.33616638 239.12025452 C83.71616638 225.59025452 79.09616638 212.06025452 74.33616638 198.12025452 C45.29616638 197.79025452 16.25616638 197.46025452 -13.66383362 197.12025452 C-14.65383362 200.75025452 -15.64383362 204.38025452 -16.66383362 208.12025452 C-17.45590049 210.66140422 -18.26886589 213.19620009 -19.10914612 215.72181702 C-19.32449005 216.36976227 -19.53983398 217.01770752 -19.76170349 217.68528748 C-20.20889245 219.02819538 -20.6575484 220.37061568 -21.10768127 221.71253967 C-21.79891596 223.77534255 -22.48356908 225.84025558 -23.16773987 227.90541077 C-23.60615636 229.21934157 -24.04494412 230.53314857 -24.48414612 231.84681702 C-24.87876038 233.02840393 -25.27337463 234.20999084 -25.6799469 235.42738342 C-26.66383362 238.12025452 -26.66383362 238.12025452 -27.66383362 239.12025452 C-29.56627124 239.21416748 -31.47221821 239.2376911 -33.37696838 239.23377991 C-34.59815872 239.23370438 -35.81934906 239.23362885 -37.07754517 239.23355103 C-38.42011047 239.22844363 -39.76267537 239.22322762 -41.10523987 239.21791077 C-42.4714452 239.21604651 -43.83765119 239.21462264 -45.20385742 239.21362305 C-48.80585057 239.20979846 -52.40780362 239.19996869 -56.00978088 239.18891907 C-59.68287107 239.17870368 -63.35596771 239.17412515 -67.02906799 239.16908264 C-74.24067485 239.15834636 -81.45224862 239.14127065 -88.66383362 239.12025452 C-87.20526615 231.64110203 -84.87103437 224.6979479 -82.25367737 217.54994202 C-81.81444946 216.3365918 -81.37522156 215.12324158 -80.92268372 213.87312317 C-79.7351848 210.59287319 -78.54098951 207.31509884 -77.34553146 204.03774261 C-76.0905076 200.59326704 -74.84192351 197.14645897 -73.5927887 193.69984436 C-71.57194664 188.12599623 -69.54785761 182.5533389 -67.52125549 176.98158264 C-65.01409643 170.08791647 -62.51577913 163.19108553 -60.02320862 156.29212952 C-59.67029251 155.31535248 -59.3173764 154.33857544 -58.95376587 153.3321991 C-58.26058397 151.41351932 -57.56743254 149.49482853 -56.87431335 147.5761261 C-55.16386836 142.84284552 -53.45094244 138.1104632 -51.73805237 133.37806702 C-48.25686285 123.75952629 -44.77715683 114.1404497 -41.29811096 104.52113342 C-39.88329168 100.60927002 -38.46824342 96.69748958 -37.05299377 92.78578186 C-33.42129651 82.74741268 -29.79239795 72.70804269 -26.16773987 62.66712952 C-13.45159222 27.44735866 -13.45159222 27.44735866 -7.66383362 11.74525452 C-7.26043762 10.64600647 -6.85704163 9.54675842 -6.44142151 8.41419983 C-5.901828 6.95772034 -5.901828 6.95772034 -5.35133362 5.47181702 C-5.04582581 4.64504456 -4.74031799 3.81827209 -4.42555237 2.96644592 C-3.26307399 0.14892622 -3.18391924 0.14373295 0 0 Z M30.33616638 68.12025452 C27.56995858 74.85500121 25.05545359 81.63693003 22.72679138 88.53431702 C22.39846313 89.49979965 22.07013489 90.46528229 21.7318573 91.46002197 C20.68050976 94.55416294 19.63313291 97.64962868 18.58616638 100.74525452 C17.86624156 102.86858869 17.14618918 104.99187961 16.42601013 107.11512756 C14.69572836 112.21947354 12.96923421 117.32508948 11.24461365 122.43135071 C10.43430578 124.8297727 9.62285657 127.22780348 8.81077576 129.62562561 C7.64806129 133.05982376 6.49081285 136.49583405 5.33616638 139.93275452 C5.01680115 140.87779846 4.69743591 141.82284241 4.36839294 142.79652405 C2.88721527 146.86888571 2.88721527 146.86888571 2.33616638 151.12025452 C21.14616638 151.12025452 39.95616638 151.12025452 59.33616638 151.12025452 C55.94348719 140.94084435 55.94348719 140.94084435 52.54734802 130.7625885 C49.78324013 122.48403046 47.03019303 114.20203705 44.30108643 105.91186523 C42.94176647 101.78451138 41.57790216 97.65866566 40.21363831 93.53294373 C39.54504698 91.50697911 38.87860514 89.48030389 38.21430969 87.45292664 C37.27859079 84.59802289 36.33552365 81.74564425 35.39085388 78.89369202 C35.11112228 78.03385208 34.83139069 77.17401215 34.54318237 76.28811646 C34.28134659 75.50230698 34.0195108 74.7164975 33.7497406 73.90687561 C33.52390289 73.22048004 33.29806519 72.53408447 33.06538391 71.82688904 C32.36966241 69.90548332 32.36966241 69.90548332 30.33616638 68.12025452 Z " fill="#00B8DB" transform="translate(1044.663833618164,3.8797454833984375)"/>
<path d="M0 0 C61.05 0 122.1 0 185 0 C185 15.84 185 31.68 185 48 C164.21 48 143.42 48 122 48 C122 111.03 122 174.06 122 239 C102.53 239 83.06 239 63 239 C63 175.97 63 112.94 63 48 C42.21 48 21.42 48 0 48 C0 32.16 0 16.32 0 0 Z " fill="#00B7DA" transform="translate(509,4)"/>
</svg>
