<?xml version="1.0" encoding="UTF-8"?>
<svg version="1.1" xmlns="http://www.w3.org/2000/svg" width="500" height="500">
<path d="M0 0 C16.84113207 13.28503645 29.53230488 31.04118739 32.75 52.6875 C32.85957031 53.37585938 32.96914063 54.06421875 33.08203125 54.7734375 C35.32288272 71.32586033 33.23128408 87.70443517 25.75 102.6875 C25.26917969 103.66074219 24.78835938 104.63398438 24.29296875 105.63671875 C19.69405632 114.19673823 13.56230819 120.87036381 6.75 127.6875 C6.08226562 128.3784375 5.41453125 129.069375 4.7265625 129.78125 C-11.2776596 145.15648521 -33.97173624 149.369606 -55.26171875 148.9921875 C-73.16457114 148.31215449 -91.14028668 140.93532905 -104.25 128.6875 C-105.07757813 127.95015625 -105.90515625 127.2128125 -106.7578125 126.453125 C-122.66485582 111.56763492 -130.48298008 91.15972718 -131.5 69.54296875 C-132.04534603 48.33227539 -125.85908196 28.45591397 -112.12890625 12.171875 C-82.25651277 -19.18043522 -35.73496995 -25.79846045 0 0 Z M-52.25 -3.3125 C-52.25 0.23853144 -51.70119456 0.81832994 -49.375 3.375 C-47.10962269 5.58051978 -45.89216883 6.59875307 -42.734375 7.03515625 C-41.00524953 6.97044347 -39.27691712 6.8783015 -37.55078125 6.7578125 C-34.2612003 6.65728201 -32.66528722 7.49178435 -30.25 9.6875 C-28.17445891 12.49952341 -27.1816711 14.43836232 -27.375 17.97265625 C-27.99944289 21.40151677 -28.66087699 23.96242552 -30.875 26.6875 C-34.31357836 28.13532247 -37.53171153 28.33337729 -41.25 28.6875 C-42.735 29.1825 -42.735 29.1825 -44.25 29.6875 C-38.29815847 36.46033857 -38.29815847 36.46033857 -30.46875 40.24609375 C-28.78066914 40.16728275 -27.09393668 40.03945497 -25.4140625 39.85546875 C-23.25 39.6875 -23.25 39.6875 -20.25 40.9375 C-18.0190267 42.88960164 -17.09487793 43.84563786 -16.25 46.6875 C-15.94489232 51.49294602 -15.78245219 55.40175907 -18.25 59.6875 C-22.88767068 61.23339023 -27.41165317 61.30290376 -32.25 60.6875 C-36.12350372 58.13098754 -37.02246664 56.61388584 -38.125 52.125 C-38.25 48.6875 -38.25 48.6875 -37.546875 46.796875 C-37.02497189 44.53557444 -37.02497189 44.53557444 -38.5234375 42.14453125 C-42.49135112 36.97835963 -42.49135112 36.97835963 -48.22021484 34.24609375 C-51.1588849 33.99342054 -54.0134222 33.94422288 -56.95654297 34.1496582 C-61.44495478 34.3381902 -63.7709463 33.69107556 -67.21484375 30.7265625 C-68.57921842 29.39979334 -69.92337961 28.05201932 -71.25 26.6875 C-71.9829126 25.97134521 -72.7158252 25.25519043 -73.47094727 24.51733398 C-75.75268222 22.2825292 -78.0043133 20.02098473 -80.25 17.75 C-81.02472656 16.97076172 -81.79945313 16.19152344 -82.59765625 15.38867188 C-84.48410757 13.4905758 -86.36816245 11.59016851 -88.25 9.6875 C-89.24 10.1825 -89.24 10.1825 -90.25 10.6875 C-89.76644043 11.16582275 -89.28288086 11.64414551 -88.78466797 12.13696289 C-86.56205985 14.33858296 -84.34351515 16.54425591 -82.125 18.75 C-81.36445313 19.50216797 -80.60390625 20.25433594 -79.8203125 21.02929688 C-75.86203023 24.97051758 -72.08514496 28.96570904 -68.49755859 33.24633789 C-67.00316929 34.97263536 -65.39371436 36.43337665 -63.625 37.875 C-56.62655897 43.83713342 -49.8569182 50.41088862 -44 57.5 C-41.48953081 60.53137346 -38.67337811 62.9743118 -35.6796875 65.51953125 C-32.4463987 68.40453975 -29.37916397 71.43961932 -26.3125 74.5 C-25.73234131 75.07572754 -25.15218262 75.65145508 -24.55444336 76.24462891 C-20.37415206 80.43919589 -20.37415206 80.43919589 -19.25 82.6875 C-18.51394531 82.65269531 -17.77789062 82.61789063 -17.01953125 82.58203125 C-6.99605209 82.30396908 -6.99605209 82.30396908 -3.25 85.6875 C-0.68367483 89.10926689 -0.88564949 92.53390421 -1.25 96.6875 C-2.48956255 99.47651573 -3.53450754 101.13100587 -5.9375 103 C-10.13983844 104.24934386 -14.31635455 104.15784619 -18.5625 103.125 C-21.23946299 100.84462412 -22.61695772 98.08344645 -23.25 94.6875 C-22.98574219 93.41261719 -22.72148437 92.13773437 -22.44921875 90.82421875 C-22.09086799 88.34979672 -21.94591563 87.18213808 -23.26879883 85.03027344 C-24.84780922 83.42809972 -26.48957178 82.0252226 -28.25 80.625 C-29.46166915 79.58809394 -30.67261308 78.5503398 -31.8828125 77.51171875 C-32.76114746 76.77961182 -32.76114746 76.77961182 -33.65722656 76.03271484 C-37.9844969 72.37801534 -41.78927511 68.25616241 -45.4375 63.9375 C-49.39648715 59.33506572 -53.89244354 55.35116866 -58.38671875 51.2890625 C-63.01154788 47.08696673 -67.35016245 42.77888254 -71.375 38 C-75.58168316 33.10806529 -80.3729025 28.87756231 -85.13671875 24.54296875 C-88.62241421 21.36641189 -91.95392592 18.06022697 -95.25 14.6875 C-95.25 15.6775 -95.25 16.6675 -95.25 17.6875 C-93.86298428 18.93016567 -92.46893024 20.16618141 -91.03466797 21.35400391 C-83.7882049 27.49099999 -83.7882049 27.49099999 -82.74462891 31.75 C-82.57819267 33.95715438 -82.55738077 36.10035048 -82.625 38.3125 C-82.8072933 44.4032954 -82.8072933 44.4032954 -80.1796875 49.8203125 C-77.64221444 52.29860252 -75.03539418 54.49544423 -72.25 56.6875 C-69.30666938 59.51912005 -66.51372445 62.47364244 -63.7265625 65.45703125 C-62.44303476 66.8049984 -61.15917413 68.15264863 -59.875 69.5 C-59.24078125 70.19287109 -58.6065625 70.88574219 -57.953125 71.59960938 C-53.9806511 75.77421456 -53.9806511 75.77421456 -48.47265625 77.08984375 C-47.40917969 76.95707031 -46.34570312 76.82429688 -45.25 76.6875 C-40.80485485 77.73341651 -38.01859213 78.99604383 -35.25 82.6875 C-33.96011499 86.55715504 -34.17641193 88.44629467 -35.375 92.375 C-37.41434491 95.97784267 -38.42307369 97.20891483 -42.25 98.6875 C-47.22049643 99.22005319 -50.30881562 98.8404475 -54.25 95.6875 C-56.28645476 92.52118495 -56.24267756 90.82089743 -55.625 87.1875 C-55.51218094 83.16164081 -56.1112154 81.86193364 -58.66796875 78.6484375 C-61.27226739 75.99752855 -64.02480731 73.511968 -66.79345703 71.03466797 C-69.21499126 68.79497205 -71.23521863 66.25375038 -73.3203125 63.70703125 C-75.31846159 61.50676117 -75.31846159 61.50676117 -78.3046875 59.38671875 C-86.76139606 52.96171942 -86.76139606 52.96171942 -87.69238281 48.62841797 C-87.86971504 45.54270178 -87.77905258 42.49957235 -87.65942383 39.41308594 C-87.64255395 33.91466862 -88.75908216 31.13145983 -92.5859375 27.15405273 C-95.06136825 24.87219002 -97.58053001 22.74093845 -100.25 20.6875 C-101.57 22.0075 -102.89 23.3275 -104.25 24.6875 C-103.75612793 25.22705322 -103.26225586 25.76660645 -102.75341797 26.32250977 C-100.84358333 29.32682418 -101.00104585 30.99816627 -101.1953125 34.52734375 C-102.12961727 49.35862936 -102.12961727 49.35862936 -95.97607422 62.22680664 C-91.65838865 66.34967726 -88.72783911 68.96495366 -82.52734375 68.90625 C-81.42894165 68.81827148 -81.42894165 68.81827148 -80.30834961 68.72851562 C-77.05459999 68.66367991 -74.91196815 69.93449659 -72.25 71.6875 C-69.55925741 75.72361389 -69.69294309 78.94835909 -70.25 83.6875 C-72.33108108 88.22804054 -72.33108108 88.22804054 -75.25 89.6875 C-80.16996928 90.21868252 -84.02327597 90.43855553 -88.3125 87.8125 C-90.25 85.6875 -90.25 85.6875 -91.25 83.6875 C-91.11475991 81.97829543 -90.96708446 80.2700637 -90.8125 78.5625 C-90.74527642 74.91802159 -90.89033599 73.20441622 -92.9921875 70.18359375 C-96.15076778 66.54532387 -96.15076778 66.54532387 -100.25 64.6875 C-101.04072241 73.76305989 -101.04072241 73.76305989 -98.25 82.125 C-96.765 83.3934375 -96.765 83.3934375 -95.25 84.6875 C-94.27353516 85.57695312 -94.27353516 85.57695312 -93.27734375 86.484375 C-91.30398884 88.26961571 -89.30651904 89.99894659 -87.25 91.6875 C-86.610625 92.25339844 -85.97125 92.81929688 -85.3125 93.40234375 C-82.71674404 95.01977502 -81.32220732 94.85002212 -78.3125 94.5625 C-74.2438113 94.41847562 -73.5760368 94.43465513 -70.1875 97.0625 C-67.15029928 101.1774171 -66.73390902 103.52659023 -67.25 108.6875 C-69.30722718 112.27105703 -70.47251286 114.11214702 -74.41015625 115.38671875 C-78.12138853 115.96292009 -80.60184946 115.94112413 -84.125 114.5625 C-86.67991714 112.30816135 -87.9978671 110.8873952 -89.25 107.6875 C-88.96350715 106.27844769 -88.64204132 104.87630785 -88.296875 103.48046875 C-87.90990689 100.42532786 -87.8380836 99.22313973 -89.74072266 96.74902344 C-91.98521452 94.80425048 -94.29240473 92.96302602 -96.625 91.125 C-101.96511527 86.47585811 -105.64989162 82.84008057 -106.2890625 75.56640625 C-106.3483771 72.37977232 -106.25167446 69.22871476 -106.12231445 66.04467773 C-105.75875611 59.73979261 -105.75875611 59.73979261 -108.25390625 54.15625 C-110.48951456 51.99914397 -112.56976268 50.24691081 -115.25 48.6875 C-119.6530368 53.0905368 -118.47031661 59.91350306 -118.5 65.75 C-118.520625 66.73677734 -118.54125 67.72355469 -118.5625 68.74023438 C-118.64773661 85.00977297 -112.20584529 99.09870389 -102.25 111.6875 C-101.13625 113.234375 -101.13625 113.234375 -100 114.8125 C-87.09555332 128.30351243 -70.0137845 136.26707685 -51.38525391 137.08764648 C-32.99066553 137.42944537 -17.05435189 130.68440811 -3.25 118.6875 C-2.43144531 118.01332031 -1.61289062 117.33914062 -0.76953125 116.64453125 C3.84081455 112.75619719 7.1514351 109.1612831 9.75 103.6875 C10.30558594 102.64335937 10.86117187 101.59921875 11.43359375 100.5234375 C20.55201799 83.28885024 23.1560818 65.55948422 17.75 46.6875 C14.78619073 37.91588157 10.90659465 29.6710999 4.75 22.6875 C4.19054687 21.9759375 3.63109375 21.264375 3.0546875 20.53125 C-7.52490947 7.60554993 -22.7334809 -0.20505098 -39.25 -2.3125 C-43.57952518 -2.72713159 -47.90848903 -3.05391471 -52.25 -3.3125 Z M-72.1875 1 C-73.41339844 1.42925781 -74.63929688 1.85851562 -75.90234375 2.30078125 C-78.84367518 3.51918575 -80.78741614 4.74395563 -83.25 6.6875 C-71.66230487 21.51154575 -71.66230487 21.51154575 -56.00390625 30.1484375 C-51.93012936 30.29546605 -48.18312023 29.72033529 -44.25 28.6875 C-45.2090625 27.511875 -45.2090625 27.511875 -46.1875 26.3125 C-48.25 23.6875 -48.25 23.6875 -49.25 21.6875 C-49.13140625 20.96820313 -49.0128125 20.24890625 -48.890625 19.5078125 C-48.32020804 15.57193548 -48.03890668 12.36079101 -50.47314453 8.99755859 C-54.02902208 5.11710579 -57.97056712 1.74119245 -62.25 -1.3125 C-65.97574084 -1.3125 -68.67731411 -0.24863905 -72.1875 1 Z M-44.25 13.6875 C-44.83342353 17.14519191 -44.83342353 17.14519191 -44.25 20.6875 C-42.7107536 22.90500908 -42.7107536 22.90500908 -40.25 23.6875 C-37.11240027 22.86574769 -35.54744125 21.98494125 -33.25 19.6875 C-32.88512488 16.84147406 -32.84800625 15.3010694 -34.4375 12.875 C-38.15602203 10.43872695 -40.73289677 11.34276451 -44.25 13.6875 Z M-109.25 30.6875 C-112.22793788 35.7349923 -112.22793788 35.7349923 -113.375 41.375 C-112.00981074 44.58365552 -112.00981074 44.58365552 -106.25 48.6875 C-106.25 43.0775 -106.25 37.4675 -106.25 31.6875 C-107.24 31.3575 -108.23 31.0275 -109.25 30.6875 Z M-28.25 44.6875 C-31.44258243 47.37908819 -31.44258243 47.37908819 -32.6875 51.25 C-32.41239216 53.69772155 -32.41239216 53.69772155 -31.0625 55.5 C-28.53374096 57.15677316 -27.216479 57.26632517 -24.25 56.6875 C-21.91369252 54.28890956 -21.91369252 54.28890956 -20.25 51.6875 C-20.81076801 49.19745496 -20.81076801 49.19745496 -22.25 46.6875 C-25.27982306 45.31560173 -25.27982306 45.31560173 -28.25 44.6875 Z M-83.9375 75.875 C-86.56894638 78.43566518 -86.56894638 78.43566518 -86.125 81.4375 C-85.44908102 83.62266519 -85.44908102 83.62266519 -84.25 84.6875 C-80.21916989 85.01210261 -80.21916989 85.01210261 -76.25 84.6875 C-73.98857742 81.94055475 -73.98857742 81.94055475 -74.375 79.1875 C-75.42935287 76.17506323 -76.51560283 75.26184989 -79.25 73.6875 C-81.56901751 73.4770762 -81.56901751 73.4770762 -83.9375 75.875 Z M-48.5 82.25 C-50.44548205 83.60108129 -50.44548205 83.60108129 -51.125 86.0625 C-51.26736213 89.05210475 -51.10012935 90.33278992 -49.25 92.6875 C-46.90127469 93.85727494 -46.90127469 93.85727494 -44.25 93.6875 C-41.72993156 92.25088689 -41.72993156 92.25088689 -40.25 89.6875 C-39.99670216 86.54039698 -39.99670216 86.54039698 -41.25 83.6875 C-43.96871352 81.92401015 -45.34035875 81.46008969 -48.5 82.25 Z M-16.5 88.3125 C-18.57885656 90.61584378 -18.57885656 90.61584378 -18.125 93.8125 C-17.46691176 96.78431373 -17.46691176 96.78431373 -15.25 98.6875 C-12.44015752 99.04773622 -10.86758081 99.07082602 -8.4375 97.5625 C-6.67997586 94.78746189 -6.78177254 92.89820255 -7.25 89.6875 C-8.9609211 87.71651574 -8.9609211 87.71651574 -11.25 86.6875 C-14.30723545 86.39475472 -14.30723545 86.39475472 -16.5 88.3125 Z M-82.1875 100.8125 C-83.61066991 103.32397631 -83.67674516 104.84253228 -83.25 107.6875 C-82.16666667 109.60416667 -82.16666667 109.60416667 -80.25 110.6875 C-77.40503228 111.11424516 -75.88647631 111.04816991 -73.375 109.625 C-71.60217817 106.57180685 -72.55764694 104.02338292 -73.25 100.6875 C-77.86009488 99.51741255 -77.86009488 99.51741255 -82.1875 100.8125 Z " fill="#E3E3E3" transform="translate(307.25,99.3125)"/>
<path d="M0 0 C8.58 0 17.16 0 26 0 C27.59230826 3.18461652 27.12222278 6.61809315 27.09375 10.11328125 C27.09016479 10.95014969 27.08657959 11.78701813 27.08288574 12.64924622 C27.01592006 23.49737646 26.75445327 34.34249664 26.5 45.1875 C26.4516269 47.31705285 26.40344876 49.44661013 26.35546875 51.57617188 C26.2392176 56.71750164 26.12036015 61.85876485 26 67 C28.95187759 64.08771272 31.63064967 61.3676872 33.875 57.875 C34.37257812 57.10929687 34.87015625 56.34359375 35.3828125 55.5546875 C36.55069113 53.70977778 37.71124419 51.86022375 38.8671875 50.0078125 C39.48851562 49.01523437 40.10984375 48.02265625 40.75 47 C41.60851562 45.6078125 41.60851562 45.6078125 42.484375 44.1875 C44 42 44 42 46 41 C48.40838678 40.91360131 50.78733881 40.88432236 53.1953125 40.90234375 C53.90275604 40.9037587 54.61019958 40.90517365 55.33908081 40.90663147 C57.60109669 40.912234 59.86301398 40.92478682 62.125 40.9375 C63.65755065 40.94251468 65.19010286 40.94707764 66.72265625 40.95117188 C70.48180888 40.96220423 74.24088772 40.97947048 78 41 C77.24965431 45.54381274 75.90378132 47.73866708 72.875 51.25 C72.05902344 52.21421875 71.24304688 53.1784375 70.40234375 54.171875 C69.21318359 55.57179688 69.21318359 55.57179688 68 57 C66.22913836 59.20341031 64.49342124 61.42653743 62.78125 63.67578125 C61.4564476 65.40441596 60.09646947 67.10620605 58.71875 68.79296875 C57.9659375 69.74816406 57.213125 70.70335937 56.4375 71.6875 C55.38369141 72.99267578 55.38369141 72.99267578 54.30859375 74.32421875 C52.73692302 76.91623466 52.73692302 76.91623466 53.34765625 79.70703125 C55.75091796 84.49651026 58.85559579 88.67276723 62 93 C64.64478367 96.77807413 67.25987853 100.57635517 69.875 104.375 C70.55046875 105.34566406 71.2259375 106.31632812 71.921875 107.31640625 C72.56382812 108.25097656 73.20578125 109.18554688 73.8671875 110.1484375 C74.73512939 111.40406494 74.73512939 111.40406494 75.62060547 112.68505859 C76.90885913 114.84704466 77.55912047 116.54084049 78 119 C50.47864616 121.3575224 50.47864616 121.3575224 43.63183594 117.75341797 C40.18562296 114.51184243 38.45585578 110.51346008 36.8359375 106.13085938 C35.44259375 102.57913499 33.44039945 99.39878013 31.5 96.125 C30.55640625 94.39636719 30.55640625 94.39636719 29.59375 92.6328125 C28.26579252 89.91057717 28.26579252 89.91057717 26 89 C26.03552979 89.83772949 26.07105957 90.67545898 26.10766602 91.53857422 C26.23679338 94.64323576 26.36112048 97.74804148 26.48217773 100.85302734 C26.56187238 102.85920071 26.64712518 104.86515076 26.73242188 106.87109375 C26.78076172 108.12792969 26.82910156 109.38476562 26.87890625 110.6796875 C26.9260376 111.84226074 26.97316895 113.00483398 27.02172852 114.20263672 C27 117 27 117 26 119 C17.42 119 8.84 119 0 119 C-0.72183895 115.39080525 -1.12533984 112.72979633 -1.12698364 109.16023254 C-1.12980347 108.21386429 -1.13262329 107.26749603 -1.13552856 106.29244995 C-1.13350433 105.26628571 -1.1314801 104.24012146 -1.12939453 103.18286133 C-1.13114685 102.09294388 -1.13289917 101.00302643 -1.13470459 99.88008118 C-1.13910286 96.28071497 -1.13619282 92.68139795 -1.1328125 89.08203125 C-1.13348597 86.5829009 -1.13445636 84.08377062 -1.13571167 81.5846405 C-1.13718577 76.35012306 -1.13513811 71.11561843 -1.13037109 65.88110352 C-1.12492081 59.82631865 -1.1266985 53.77156741 -1.1321975 47.71678334 C-1.13727692 41.89100052 -1.13674646 36.06523051 -1.13381577 30.23944664 C-1.13314701 27.75982343 -1.13397314 25.28019937 -1.13629532 22.80057716 C-1.13882309 19.34334633 -1.13497984 15.886181 -1.12939453 12.42895508 C-1.13141876 11.39671814 -1.13344299 10.3644812 -1.13552856 9.30096436 C-1.13270874 8.36305557 -1.12988892 7.42514679 -1.12698364 6.45881653 C-1.12660662 5.64122769 -1.12622959 4.82363886 -1.12584114 3.9812746 C-1 2 -1 2 0 0 Z " fill="#E6E6E6" transform="translate(149,279)"/>
<path d="M0 0 C7.90020558 6.62800548 10.49954204 14.05457981 12.71484375 24.0234375 C13.67289573 37.91519116 13.12954591 51.77250708 4.96484375 63.6484375 C2.52805781 66.12254839 -0.03531814 67.91398565 -3.03515625 69.6484375 C-3.70289062 70.03773438 -4.370625 70.42703125 -5.05859375 70.828125 C-16.95138361 76.88504772 -31.28252875 76.59893992 -44.03515625 73.6484375 C-52.67081408 70.69807718 -58.75061084 66.5168253 -63.20703125 58.5546875 C-69.44416673 45.71884347 -69.97513645 29.93164869 -66.0078125 16.33203125 C-62.66274084 7.10285763 -57.80366629 1.08964672 -49.16015625 -3.6015625 C-34.38202135 -10.33164291 -13.24334394 -9.8187541 0 0 Z M-37.03515625 16.6484375 C-39.7876499 22.66660158 -40.50456588 27.63897818 -40.41015625 34.2109375 C-40.42175781 35.02240234 -40.43335937 35.83386719 -40.4453125 36.66992188 C-40.41584942 42.75404886 -39.439031 47.64359406 -35.53515625 52.5234375 C-32.40515425 54.870939 -28.91821305 55.06090837 -25.1015625 54.9765625 C-22.27459677 54.52766813 -20.26119996 53.36465488 -18.2265625 51.36328125 C-13.03453175 43.89016158 -14.74533188 32.14050265 -16.03515625 23.6484375 C-17.19567397 20.08684862 -18.36346837 17.24336105 -21.22265625 14.7109375 C-26.76190601 12.61833203 -32.47926069 12.48304728 -37.03515625 16.6484375 Z " fill="#E8E8E8" transform="translate(123.03515625,325.3515625)"/>
<path d="M0 0 C5.36857419 5.14971146 7.87703812 12.60602858 8.23608398 19.90258789 C8.26420688 21.3008701 8.28813953 22.69924084 8.30859375 24.09765625 C8.34151257 25.62044888 8.37472453 27.1432352 8.40820312 28.66601562 C8.45571261 31.05798285 8.50020304 33.44992097 8.53930664 35.84204102 C8.57898057 38.15667024 8.63051041 40.47080119 8.68359375 42.78515625 C8.6920079 43.50083267 8.70042206 44.21650909 8.70909119 44.95387268 C8.80060951 48.62498973 8.97154795 50.23857192 11.0625 53.375 C14.12806598 54.10843428 14.12806598 54.10843428 17.0625 54.375 C16.64633446 59.45221962 15.9717716 64.34793577 14.8125 69.3125 C14.60109375 70.22902344 14.3896875 71.14554687 14.171875 72.08984375 C13.0625 74.375 13.0625 74.375 10.65234375 75.671875 C3.88487817 77.50919597 -2.6130688 76.10988917 -8.9375 73.375 C-10.98304243 71.84084318 -12.3133594 70.37810674 -13.9375 68.375 C-16.66976541 69.67493244 -19.0849558 71.14599043 -21.5625 72.875 C-28.28169159 77.08071622 -35.62082036 78.02530405 -43.4140625 76.98046875 C-49.12684309 75.60975514 -54.11377129 73.10520416 -58.375 69.0625 C-62.38046733 62.17309619 -64.27087112 55.77557233 -62.31640625 47.859375 C-59.29837048 38.89916213 -53.22442442 35.29276535 -45.08984375 31.234375 C-39.05508978 28.82485436 -33.41734614 28.01395254 -27 27.75 C-26.22076172 27.71132813 -25.44152344 27.67265625 -24.63867188 27.6328125 C-22.73862621 27.53955873 -20.83809722 27.45624038 -18.9375 27.375 C-19.5975 23.745 -20.2575 20.115 -20.9375 16.375 C-24.2375 16.375 -27.5375 16.375 -30.9375 16.375 C-31.9275 19.015 -32.9175 21.655 -33.9375 24.375 C-40.01569538 23.90744651 -45.95208889 23.09310987 -51.9375 21.9375 C-53.21625 21.69128906 -54.495 21.44507813 -55.8125 21.19140625 C-58.9375 20.375 -58.9375 20.375 -60.9375 18.375 C-60.95042953 12.14296893 -58.19593474 7.5272871 -53.98046875 3.1640625 C-41.26143286 -7.97421367 -13.92131661 -10.55089259 0 0 Z M-33.8125 46.75 C-35.13520507 48.66057399 -35.64934609 50.06976869 -35.9375 52.375 C-35.25976864 55.39794792 -35.25976864 55.39794792 -33.25 56.5625 C-30.23169526 57.62298545 -28.12162795 57.76489322 -24.9375 57.375 C-22.23759338 55.57506226 -20.3956135 54.291227 -18.9375 51.375 C-18.8685528 50.00157169 -18.85282292 48.62497898 -18.875 47.25 C-18.895625 45.97125 -18.91625 44.6925 -18.9375 43.375 C-24.25163535 43.11577389 -29.40098802 43.51489122 -33.8125 46.75 Z " fill="#E7E7E7" transform="translate(444.9375,323.625)"/>
<path d="M0 0 C5.17224979 4.18557564 7.65512285 9.5336154 9 16 C9.47468147 21.95609606 9.55958091 27.90247898 9.625 33.875 C9.66158991 36.28030544 9.70220052 38.68545241 9.74765015 41.09060669 C9.77471632 42.57852802 9.79613639 44.06656562 9.81118774 45.55465698 C9.8582412 48.6333568 10.01878311 51.05634934 11 54 C14.51190809 55.22969878 14.51190809 55.22969878 18 56 C16.90109517 62.91663627 15.43430815 69.42736799 13 76 C-4.21148825 76.75195822 -4.21148825 76.75195822 -11 72 C-11.66 71.01 -12.32 70.02 -13 69 C-15.72476047 70.29351266 -18.10576122 71.75958894 -20.5625 73.5 C-28.22784025 78.27489772 -36.42628037 78.6545458 -45.1328125 76.890625 C-52.30048365 74.66415494 -57.48478683 70.5910247 -61 64 C-62.94709555 58.15871335 -62.62921341 52.02010623 -60.8125 46.1875 C-55.46715975 36.78707404 -48.44033628 33.14677876 -38.25 29.75 C-31.60168937 28.35783239 -24.74298805 27.76922436 -18 27 C-18.1546875 25.081875 -18.1546875 25.081875 -18.3125 23.125 C-18.39951172 22.04605469 -18.39951172 22.04605469 -18.48828125 20.9453125 C-18.87393036 18.60480784 -18.87393036 18.60480784 -22 17 C-24.80590236 16.57216934 -27.1233315 16.77169298 -30 17 C-31.9451 19.91765 -32.45276317 21.62537285 -33 25 C-52.6866485 23.65667575 -52.6866485 23.65667575 -60 20 C-59.60221824 12.5747405 -57.69705015 7.34927038 -52.08984375 2.26953125 C-38.70292866 -7.57021578 -14.04688942 -9.34094498 0 0 Z M-33.9375 47.8125 C-35.24515442 50.50472969 -35.53008446 52.04667231 -35 55 C-32.69658706 57.67195901 -31.12284079 57.98180136 -27.625 58.5 C-22.90766557 57.84933318 -21.12583164 56.57237902 -18 53 C-17.14673864 50.18052769 -17.0499652 47.99791202 -17 45 C-18.13366796 43.64516965 -18.13366796 43.64516965 -21.125 43.8125 C-25.98802718 44.04780777 -30.27090877 44.38246305 -33.9375 47.8125 Z " fill="#E7E7E7" transform="translate(359,323)"/>
<path d="M0 0 C8.58 0 17.16 0 26 0 C26 6.93 26 13.86 26 21 C32.5370285 20.96041741 32.5370285 20.96041741 39.07397461 20.90991211 C39.88358643 20.90741455 40.69319824 20.90491699 41.52734375 20.90234375 C42.77632446 20.89448853 42.77632446 20.89448853 44.05053711 20.88647461 C46 21 46 21 47 22 C47.09860131 23.40348735 47.13078937 24.81180477 47.1328125 26.21875 C47.13474609 27.49298828 47.13474609 27.49298828 47.13671875 28.79296875 C47.13285156 29.68628906 47.12898438 30.57960938 47.125 31.5 C47.13080078 32.83998047 47.13080078 32.83998047 47.13671875 34.20703125 C47.13542969 35.05652344 47.13414062 35.90601563 47.1328125 36.78125 C47.13168457 37.56564453 47.13055664 38.35003906 47.12939453 39.15820312 C47 41 47 41 46 42 C44.5112814 42.08669432 43.018555 42.10703494 41.52734375 42.09765625 C40.71773193 42.09515869 39.90812012 42.09266113 39.07397461 42.09008789 C38.03893799 42.08098389 37.00390137 42.07187988 35.9375 42.0625 C32.658125 42.041875 29.37875 42.02125 26 42 C26.33 54.21 26.66 66.42 27 79 C31.82464719 77.61986686 31.82464719 77.61986686 33.14453125 75.2734375 C33.36496094 74.64695312 33.58539063 74.02046875 33.8125 73.375 C34.204375 72.26125 34.59625 71.1475 35 70 C39.48993869 70.58652352 43.22543184 71.7643538 47.375 73.5625 C48.43460937 74.01753906 49.49421875 74.47257812 50.5859375 74.94140625 C51.38257813 75.29074219 52.17921875 75.64007813 53 76 C53.72584752 82.67779719 51.5625069 87.38635276 48 93 C41.86171968 99.29981402 34.74547619 100.54598579 26.27734375 100.9921875 C17.51198468 101.01308228 10.61774541 98.92895967 4 93 C0.44704352 88.45574903 -1.07578602 83.66541528 -1.20532227 77.96582031 C-1.22526749 77.18531311 -1.24521271 76.40480591 -1.26576233 75.60064697 C-1.29083107 74.3519986 -1.29083107 74.3519986 -1.31640625 73.078125 C-1.33718735 72.21813904 -1.35796844 71.35815308 -1.37937927 70.47210693 C-1.44463739 67.73148402 -1.50364917 64.99076725 -1.5625 62.25 C-1.60570781 60.3893133 -1.64932282 58.52863602 -1.69335938 56.66796875 C-1.80029442 52.11207477 -1.90162851 47.5560866 -2 43 C-5.96 42.505 -5.96 42.505 -10 42 C-11.41209747 37.98500644 -10.92105682 33.97579909 -10.625 29.8125 C-10.58117187 29.07580078 -10.53734375 28.33910156 -10.4921875 27.58007812 C-10.13127309 22.13127309 -10.13127309 22.13127309 -9 21 C-6.32941149 20.85884839 -3.67567762 20.95752893 -1 21 C-1.01160156 20.32195312 -1.02320313 19.64390625 -1.03515625 18.9453125 C-1.04869141 17.54925781 -1.04869141 17.54925781 -1.0625 16.125 C-1.07410156 15.22007812 -1.08570313 14.31515625 -1.09765625 13.3828125 C-0.96849767 8.90875913 -0.44537042 4.45370416 0 0 Z " fill="#E5E5E5" transform="translate(240,299)"/>
<path d="M0 0 C13.21909702 1.81438587 25.38438572 13.46247357 33.25048828 23.61376953 C41.0539512 34.28546493 47.04450153 46.84482847 49 60 C49.16435547 61.03253906 49.16435547 61.03253906 49.33203125 62.0859375 C51.57288272 78.63836033 49.48128408 95.01693517 42 110 C41.51917969 110.97324219 41.03835938 111.94648438 40.54296875 112.94921875 C35.94405632 121.50923823 29.81230819 128.18286381 23 135 C22.33226562 135.6909375 21.66453125 136.381875 20.9765625 137.09375 C4.97369735 152.46768159 -17.71936088 156.68228083 -39.0078125 156.3046875 C-50.22128601 155.87868113 -59.84361484 152.84854893 -69.9375 148.0625 C-70.97777344 147.57716797 -70.97777344 147.57716797 -72.0390625 147.08203125 C-76.74577927 144.67616386 -76.74577927 144.67616386 -77.94140625 141.49609375 C-77.99222447 139.33123746 -78 137.16545267 -78 135 C-77.01 134.01 -77.01 134.01 -76 133 C-70.19713971 133 -66.41290185 134.13020543 -61.3125 136.875 C-46.23998268 144.80188648 -28.8445643 144.97364936 -12.7578125 140.2578125 C-2.74198179 136.90532031 5.0574599 131.87283773 13 125 C13.74507813 124.39929688 14.49015625 123.79859375 15.2578125 123.1796875 C19.63243113 119.57990907 22.52877322 116.11507602 25 111 C25.556875 109.95457031 26.11375 108.90914063 26.6875 107.83203125 C35.79927782 90.59508598 38.40612053 72.87211939 33 54 C30.03349847 45.22041362 26.14186957 37.00556997 20 30 C19.525625 29.37351562 19.05125 28.74703125 18.5625 28.1015625 C14.34330076 22.76427546 9.29710862 19.15605827 3.62304688 15.50048828 C1.81640625 14.296875 1.81640625 14.296875 -1 12 C-1 10.68 -1 9.36 -1 8 C-0.34 8 0.32 8 1 8 C0.649375 7.05125 0.29875 6.1025 -0.0625 5.125 C-1 2 -1 2 0 0 Z " fill="#E2E2E2" transform="translate(291,92)"/>
<path d="M0 0 C7.02699266 5.80490698 13.9451817 12.03016139 19.625 19.1875 C21.5305255 21.44404336 23.27382191 23.16886303 25.5 25.0625 C29.40522888 28.39496198 33.05568329 31.93836913 36.6875 35.5625 C37.50734375 36.37569702 37.50734375 36.37569702 38.34375 37.20532227 C40.91559748 39.78616496 43.37239564 42.3935146 45.6796875 45.21484375 C47.53093257 47.43696115 49.21389595 49.19235883 51.4375 51 C55.64218524 54.58897025 59.57558016 58.42312403 63.5 62.3125 C64.13607178 62.93576172 64.77214355 63.55902344 65.42749023 64.20117188 C66.01860596 64.79091797 66.60972168 65.38066406 67.21875 65.98828125 C67.75435547 66.51977783 68.28996094 67.05127441 68.84179688 67.59887695 C70 69 70 69 70 71 C70.99 70.67 71.98 70.34 73 70 C77.79566077 69.60691305 80.06907584 69.51729858 84.375 71.75 C88.11134034 74.95257743 88.83381154 76.50430385 89.375 81.375 C88.92831385 85.69296607 87.7684289 87.69326548 85 91 C81.97270732 93.3785871 78.75191178 93.36902307 74.9609375 93.2421875 C71.91654085 92.86618632 70.29604866 92.0336431 68 90 C65.56201291 85.85542195 64.82741921 83.87341646 65.76953125 79.10546875 C66.13353981 77.0180806 66.13353981 77.0180806 66 75 C64.17937938 72.64427524 62.84428911 71.27115556 60.5625 69.5 C59.44412572 68.55739587 58.3269407 67.61337894 57.2109375 66.66796875 C56.66018555 66.21470215 56.10943359 65.76143555 55.54199219 65.29443359 C50.8106514 61.32268425 46.61456184 56.76481419 42.625 52.0625 C39.23014052 48.11211806 35.4502651 44.73291621 31.55078125 41.2890625 C26.26594563 36.54646882 21.26542071 31.55436973 16.6875 26.125 C13.22364742 22.06896653 9.34576821 18.55180812 5.3503418 15.03173828 C1.85113393 11.91557128 -1.08149696 8.64545618 -4 5 C-3.34 5 -2.68 5 -2 5 C-2 4.34 -2 3.68 -2 3 C-1.34 2.67 -0.68 2.34 0 2 C0 1.34 0 0.68 0 0 Z M72.75 76.625 C70.67114344 78.92834378 70.67114344 78.92834378 71.125 82.125 C71.78308824 85.09681373 71.78308824 85.09681373 74 87 C76.80984248 87.36023622 78.38241919 87.38332602 80.8125 85.875 C82.57002414 83.09996189 82.46822746 81.21070255 82 78 C80.2890789 76.02901574 80.2890789 76.02901574 78 75 C74.94276455 74.70725472 74.94276455 74.70725472 72.75 76.625 Z " fill="#C0C0C0" transform="translate(218,111)"/>
<path d="M0 0 C1.04458319 0.87151615 2.08546407 1.74746967 3.125 2.625 C3.99511719 3.35589844 3.99511719 3.35589844 4.8828125 4.1015625 C5.93082031 5.04128906 5.93082031 5.04128906 7 6 C7.51884766 6.41572266 8.03769531 6.83144531 8.57226562 7.25976562 C11.93354231 10.17657597 12.92596761 11.3541312 13.453125 15.953125 C13.39946627 17.3860118 13.33127466 18.81841407 13.25 20.25 C13.23559773 25.03361131 13.39761238 28.09192314 16.09375 32.15625 C18.62295535 34.62594463 21.22386524 36.81523122 24 39 C26.86883546 41.76137094 29.59444542 44.6358031 32.3046875 47.55078125 C33.4945104 48.8049544 34.68461938 50.0588562 35.875 51.3125 C36.46152344 51.95767578 37.04804688 52.60285156 37.65234375 53.26757812 C41.44817521 57.21963291 41.44817521 57.21963291 46.75 58.375 C47.8225 58.25125 48.895 58.1275 50 58 C55.01935985 59.10425917 57.79454078 60.97027984 61 65 C62.376325 68.95693439 62.1048145 70.69079723 60.75 74.6875 C58.54274344 78.86552134 57.46940217 80.51019928 53 82 C48.74839783 82.40109454 46.4993027 82.26378256 42.6875 80.25 C40.0932639 78.0780814 39.14143205 77.08130425 38 74 C38.15825042 72.49389257 38.37119364 70.9929786 38.625 69.5 C38.73781906 65.47414081 38.1387846 64.17443364 35.58203125 60.9609375 C32.97773261 58.31002855 30.22519269 55.824468 27.45654297 53.34716797 C25.03500874 51.10747205 23.01478137 48.56625038 20.9296875 46.01953125 C18.93153841 43.81926117 18.93153841 43.81926117 15.9453125 41.69921875 C7.505186 35.28651812 7.505186 35.28651812 6.54150391 30.92480469 C6.33830224 27.82074731 6.41060507 24.76194378 6.52026367 21.65527344 C6.54533107 16.39891794 5.69017416 13.64989197 2.02172852 9.82421875 C-0.24186176 7.75353422 -2.54227464 5.83823281 -5 4 C-4.360625 3.71125 -3.72125 3.4225 -3.0625 3.125 C-0.84793921 2.17176549 -0.84793921 2.17176549 0 0 Z M46.75 64.5625 C44.80451795 65.91358129 44.80451795 65.91358129 44.125 68.375 C43.98263787 71.36460475 44.14987065 72.64528992 46 75 C48.34872531 76.16977494 48.34872531 76.16977494 51 76 C53.52006844 74.56338689 53.52006844 74.56338689 55 72 C55.25329784 68.85289698 55.25329784 68.85289698 54 66 C51.28128648 64.23651015 49.90964125 63.77258969 46.75 64.5625 Z " fill="#939393" transform="translate(212,117)"/>
<path d="M0 0 C1.04458319 0.87151615 2.08546407 1.74746967 3.125 2.625 C3.76953125 3.16640625 4.4140625 3.7078125 5.078125 4.265625 C6.85857538 5.8723729 8.32785684 7.54971874 9.875 9.375 C11.70036951 11.26381818 12.53090604 11.94157494 15.1640625 12.26953125 C16.71728649 12.21498659 18.26982016 12.13436426 19.8203125 12.02734375 C23.99912783 11.97492134 26.8228369 13.97979198 29.875 16.625 C31.65278278 20.37809699 31.65482434 23.93023152 31 28 C28.07317073 33.46341463 28.07317073 33.46341463 25 35 C20.90842645 35.51512617 16.76410454 35.94367269 13.04296875 33.953125 C10.90684313 32.18601378 9.24550829 30.49101659 8 28 C8.13524009 26.29079543 8.28291554 24.5825637 8.4375 22.875 C8.50946645 19.22390228 8.39853927 17.54569223 6.22265625 14.56640625 C4.77696232 13.18169062 3.28656346 11.84173095 1.75 10.55859375 C1.1725 10.04425781 0.595 9.52992188 0 9 C0 8.34 0 7.68 0 7 C-1.32 6.67 -2.64 6.34 -4 6 C-4.33 12.6 -4.66 19.2 -5 26 C-5.33 26 -5.66 26 -6 26 C-6.33 17.75 -6.66 9.5 -7 1 C-5.68 1.33 -4.36 1.66 -3 2 C-2.01 1.34 -1.02 0.68 0 0 Z M16.3125 20.1875 C13.68105362 22.74816518 13.68105362 22.74816518 14.125 25.75 C14.80091898 27.93516519 14.80091898 27.93516519 16 29 C20.03083011 29.32460261 20.03083011 29.32460261 24 29 C26.26142258 26.25305475 26.26142258 26.25305475 25.875 23.5 C24.82064713 20.48756323 23.73439717 19.57434989 21 18 C18.68098249 17.7895762 18.68098249 17.7895762 16.3125 20.1875 Z " fill="#C7C7C7" transform="translate(207,155)"/>
<path d="M0 0 C3.84255477 1.28085159 4.99531702 3.27390589 7.40234375 6.40625 C9.28221379 8.28152378 10.39462806 8.64792271 13 9 C14.134375 8.95875 15.26875 8.9175 16.4375 8.875 C21.18608743 9.0416171 23.49721564 10.44354478 26.75 13.8125 C28.38943245 16.68150679 28.86999017 18.68474941 29 22 C27.86980179 25.50956285 26.78632438 28.12630624 24.3125 30.875 C19.54427646 33.19467632 15.60538466 33.54522498 10.6875 31.875 C7.52733411 29.6702331 6.35855997 28.6228266 5 25 C5.17655483 23.29050083 5.36550791 21.58226481 5.5625 19.875 C5.6869781 16.91563351 5.65187412 14.8902481 3.86767578 12.45361328 C0.55062872 8.94098824 -3.20725373 5.97851404 -7 3 C-7.66 2.34 -8.32 1.68 -9 1 C-5.20411134 1.54226981 -3.52788007 3.20127563 -1 6 C-0.67 4.02 -0.34 2.04 0 0 Z M11 17 C10.41657647 20.45769191 10.41657647 20.45769191 11 24 C12.5392464 26.21750908 12.5392464 26.21750908 15 27 C18.13759973 26.17824769 19.70255875 25.29744125 22 23 C22.36487512 20.15397406 22.40199375 18.6135694 20.8125 16.1875 C17.09397797 13.75122695 14.51710323 14.65526451 11 17 Z " fill="#CFCFCF" transform="translate(252,96)"/>
<path d="M0 0 C2.0625 0.75 2.0625 0.75 3.390625 2.30078125 C4.98103328 3.97361624 4.98103328 3.97361624 7.33203125 3.90234375 C8.17121094 3.83144531 9.01039063 3.76054687 9.875 3.6875 C14.77274331 3.53735021 17.32266046 4.38414442 21.0625 7.75 C23.44167298 10.77803834 23.41913753 13.99451052 23.3203125 17.78515625 C22.94199755 20.66837475 21.85430855 22.49364849 20.0625 24.75 C15.60288458 27.72307695 11.29172586 27.37015709 6.0625 26.75 C2.84188149 24.97537347 1.57790881 23.59339624 -0.3125 20.5 C-0.9375 17.75 -0.9375 17.75 -0.25 13.8125 C0.18476004 11.28038108 0.35375567 10.22236374 -1.01171875 8.0078125 C-2.30941407 6.57856999 -3.62264347 5.16347077 -4.9375 3.75 C-4.6075 2.76 -4.2775 1.77 -3.9375 0.75 C-1.9375 -0.25 -1.9375 -0.25 0 0 Z M10.0625 9.75 C6.86991757 12.44158819 6.86991757 12.44158819 5.625 16.3125 C5.90010784 18.76022155 5.90010784 18.76022155 7.25 20.5625 C9.77875904 22.21927316 11.096021 22.32882517 14.0625 21.75 C16.39880748 19.35140956 16.39880748 19.35140956 18.0625 16.75 C17.50173199 14.25995496 17.50173199 14.25995496 16.0625 11.75 C13.03267694 10.37810173 13.03267694 10.37810173 10.0625 9.75 Z " fill="#CCCCCC" transform="translate(268.9375,134.25)"/>
<path d="M0 0 C1.30453125 -0.03738281 2.6090625 -0.07476562 3.953125 -0.11328125 C8.29957783 0.37412961 10.37510975 1.59637211 13.75 4.3125 C16.34036348 7.72707004 16.18108741 11.14532171 15.75 15.3125 C14.13679279 18.36607079 12.71939098 20.55083566 10 22.6875 C5.39574741 23.96645905 1.34985002 23.91688778 -3.0625 22.25 C-6.12629652 19.53635165 -7.09375749 17.23087739 -8.25 13.3125 C-8.13671875 11.21875 -8.13671875 11.21875 -7.8125 9.125 C-7.26843378 5.43744005 -7.15857198 4.26510427 -9.25 1.3125 C-6.21843143 -0.20328428 -3.37033386 0.06278073 0 0 Z M-0.5 6.9375 C-2.57885656 9.24084378 -2.57885656 9.24084378 -2.125 12.4375 C-1.46691176 15.40931373 -1.46691176 15.40931373 0.75 17.3125 C3.55984248 17.67273622 5.13241919 17.69582602 7.5625 16.1875 C9.32002414 13.41246189 9.21822746 11.52320255 8.75 8.3125 C7.0390789 6.34151574 7.0390789 6.34151574 4.75 5.3125 C1.69276455 5.01975472 1.69276455 5.01975472 -0.5 6.9375 Z " fill="#DDDDDD" transform="translate(291.25,180.6875)"/>
<path d="M0 0 C7.13811563 0.36295503 7.13811563 0.36295503 10.875 3.125 C13.3768439 6.50984763 14.42362589 8.82128772 15 13 C13.73493818 16.99493208 12.42091563 20.43431328 9 23 C5.38069302 24.20643566 2.80768995 24.32268559 -1 24 C-4.05357079 22.38679279 -6.23833566 20.96939098 -8.375 18.25 C-9.33315962 14.80062538 -9.11908512 11.57255374 -9 8 C-8.34 8 -7.68 8 -7 8 C-7.226875 7.401875 -7.45375 6.80375 -7.6875 6.1875 C-8 4 -8 4 -6.875 2.1875 C-5 1 -5 1 -2.3125 1.3125 C-1.549375 1.539375 -0.78625 1.76625 0 2 C0 1.34 0 0.68 0 0 Z M-0.25 6.5625 C-2.19548205 7.91358129 -2.19548205 7.91358129 -2.875 10.375 C-3.01736213 13.36460475 -2.85012935 14.64528992 -1 17 C1.34872531 18.16977494 1.34872531 18.16977494 4 18 C6.52006844 16.56338689 6.52006844 16.56338689 8 14 C8.25329784 10.85289698 8.25329784 10.85289698 7 8 C4.28128648 6.23651015 2.90964125 5.77258969 -0.25 6.5625 Z " fill="#DFDFDF" transform="translate(259,175)"/>
<path d="M0 0 C5.06623768 4.23816537 9.80038069 8.67408963 14.4375 13.375 C15.07365234 14.01566406 15.70980469 14.65632812 16.36523438 15.31640625 C17.91250332 16.87530879 19.45736492 18.43651416 21 20 C20 22 20 22 16.96875 23.10546875 C11.76315575 22.96713111 10.21755534 21.18116308 6.6484375 17.59570312 C5.58496094 16.46551758 5.58496094 16.46551758 4.5 15.3125 C3.76007813 14.57837891 3.02015625 13.84425781 2.2578125 13.08789062 C-1.71834545 8.99717794 -1.71834545 8.99717794 -3 7 C-2.82226562 4.81713867 -2.82226562 4.81713867 -2 3 C-1.34 2.67 -0.68 2.34 0 2 C0 1.34 0 0.68 0 0 Z " fill="#B8B8B8" transform="translate(267,160)"/>
<path d="M0 0 C0.99 0 1.98 0 3 0 C3 0.66 3 1.32 3 2 C3.66 2 4.32 2 5 2 C5.01417969 3.08539063 5.02835938 4.17078125 5.04296875 5.2890625 C5.08989582 6.73441613 5.13814305 8.17972731 5.1875 9.625 C5.19330078 10.33785156 5.19910156 11.05070313 5.20507812 11.78515625 C5.44292687 17.54638146 7.13401288 19.795739 11 24 C11.8125 27.875 11.8125 27.875 12 31 C7.29121988 31 5.14604301 28.70719423 1.8984375 25.46484375 C-2.22632168 17.9367339 -0.63408965 8.33204639 0 0 Z " fill="#EEEEEE" transform="translate(202,160)"/>
<path d="M0 0 C7.24101736 -0.61364554 7.24101736 -0.61364554 10.9375 2.375 C14.20069153 6.52815286 14.53708972 9.80813274 14 15 C12.875 17.9375 12.875 17.9375 11 20 C8.0625 21 8.0625 21 5 21 C2.625 19.5625 2.625 19.5625 1 18 C1.969375 17.4225 2.93875 16.845 3.9375 16.25 C7.03154566 14.34372299 7.03154566 14.34372299 8 11.9375 C8.17912194 9.66775769 8.17912194 9.66775769 6 7 C4.03638136 6.42251197 4.03638136 6.42251197 1.875 6.3125 C0.59625 6.209375 -0.6825 6.10625 -2 6 C-1.34 4.02 -0.68 2.04 0 0 Z " fill="#D3D3D3" transform="translate(278,139)"/>
<path d="M0 0 C1.32 0.66 2.64 1.32 4 2 C4 2.66 4 3.32 4 4 C5.22044701 5.49889633 5.22044701 5.49889633 6.84375 7.0390625 C7.43027344 7.61914062 8.01679688 8.19921875 8.62109375 8.796875 C9.24113281 9.40015625 9.86117187 10.0034375 10.5 10.625 C11.43005859 11.54152344 11.43005859 11.54152344 12.37890625 12.4765625 C13.91485086 13.98887719 15.45686675 15.49502114 17 17 C16.34 18.98 15.68 20.96 15 23 C15.99 23.33 16.98 23.66 18 24 C17.67 24.99 17.34 25.98 17 27 C13.78001585 24.01227993 10.60563309 20.98007367 7.4375 17.9375 C6.06561523 16.66616211 6.06561523 16.66616211 4.66601562 15.36914062 C-1.79363492 9.10303766 -1.79363492 9.10303766 -2.40185547 5.85205078 C-2.10547101 3.58247662 -1.66266176 1.66266176 0 0 Z " fill="#CFCFCF" transform="translate(222,103)"/>
<path d="M0 0 C0.33 0 0.66 0 1 0 C1 2.31 1 4.62 1 7 C1.99 6.67 2.98 6.34 4 6 C4.33 6.33 4.66 6.66 5 7 C5.66 6.34 6.32 5.68 7 5 C7.33 6.32 7.66 7.64 8 9 C11.465 8.505 11.465 8.505 15 8 C15.66 6.02 16.32 4.04 17 2 C17.33 2 17.66 2 18 2 C18 3.98 18 5.96 18 8 C19.32 7.01 20.64 6.02 22 5 C22.8125 6.625 22.8125 6.625 23 9 C19 14.66666667 19 14.66666667 15 16 C10.74839783 16.40109454 8.4993027 16.26378256 4.6875 14.25 C0.84175084 11.03030303 0.84175084 11.03030303 0 8 C-0.14489347 5.30912124 -0.08998823 2.69964689 0 0 Z " fill="#B9B9B9" transform="translate(250,183)"/>
<path d="M0 0 C1.32 0.33 2.64 0.66 4 1 C4 9.91 4 18.82 4 28 C2.68 28.33 1.36 28.66 0 29 C0 28.34 0 27.68 0 27 C-0.99 26.67 -1.98 26.34 -3 26 C-2.34 26 -1.68 26 -1 26 C-1.66 24.68 -2.32 23.36 -3 22 C-2.67 21.67 -2.34 21.34 -2 21 C-1.85575512 19.60978423 -1.77312811 18.21302699 -1.71875 16.81640625 C-1.68136719 15.97142578 -1.64398438 15.12644531 -1.60546875 14.25585938 C-1.57066406 13.36705078 -1.53585938 12.47824219 -1.5 11.5625 C-1.43121724 9.8136346 -1.35848817 8.06491862 -1.28125 6.31640625 C-1.25095703 5.53724854 -1.22066406 4.75809082 -1.18945312 3.95532227 C-1 2 -1 2 0 0 Z " fill="#EDEDED" transform="translate(203,129)"/>
<path d="M0 0 C3.54188015 2.95505977 6.98556789 5.92523162 10.1875 9.25 C12.49841885 11.5095651 14.03881315 12.86108198 17 14 C15.02 14 13.04 14 11 14 C10.67 15.98 10.34 17.96 10 20 C8.90169097 18.90169097 7.80449544 17.8022584 6.7109375 16.69921875 C5.37680586 15.374225 4.02397901 14.06804685 2.6640625 12.76953125 C1.84679687 11.97933594 1.02953125 11.18914062 0.1875 10.375 C-0.60269531 9.61960938 -1.39289063 8.86421875 -2.20703125 8.0859375 C-4 6 -4 6 -4 3 C-1.525 3.495 -1.525 3.495 1 4 C0.67 2.68 0.34 1.36 0 0 Z " fill="#B6B6B6" transform="translate(242,163)"/>
<path d="M0 0 C2 2 2 2 2.375 5.25 C1.93501694 9.64983056 0.8182654 11.63373855 -2 15 C-5.56969854 17.80476313 -9.65995488 17.14466817 -14 17 C-14 16.01 -14 15.02 -14 14 C-13.34 14 -12.68 14 -12 14 C-12.33 13.01 -12.66 12.02 -13 11 C-12.05125 10.814375 -11.1025 10.62875 -10.125 10.4375 C-6.61628301 9.26599195 -6.61628301 9.26599195 -5.625 5.375 C-5.315625 3.704375 -5.315625 3.704375 -5 2 C-4.01 3.485 -4.01 3.485 -3 5 C-2.01 3.35 -1.02 1.7 0 0 Z " fill="#D4D4D4" transform="translate(305,187)"/>
<path d="M0 0 C1.65 0.33 3.3 0.66 5 1 C5.4992298 7.24037253 5.24142184 11.01009196 1 16 C-1.79870027 17.39935013 -3.90498792 17.25265405 -7 17 C-8.875 15.5 -8.875 15.5 -10 14 C-9.67 13.34 -9.34 12.68 -9 12 C-6.6859378 11.26924352 -4.35171131 10.59861742 -2 10 C-1.855625 9.0925 -1.71125 8.185 -1.5625 7.25 C-1.13590527 4.78523044 -0.64925779 2.41152893 0 0 Z " fill="#DEDEDE" transform="translate(233,173)"/>
<path d="M0 0 C2.0625 0.75 2.0625 0.75 3.3671875 2.28515625 C5.70146355 4.30209984 7.21600844 4.05570746 10.25 3.9375 C11.15105469 3.91042969 12.05210937 3.88335937 12.98046875 3.85546875 C13.66753906 3.82066406 14.35460937 3.78585938 15.0625 3.75 C15.0625 4.08 15.0625 4.41 15.0625 4.75 C14.27875 4.811875 13.495 4.87375 12.6875 4.9375 C9.89833723 5.47017448 9.89833723 5.47017448 8.875 7.875 C8.606875 8.82375 8.33875 9.7725 8.0625 10.75 C7.69125 12.008125 7.32 13.26625 6.9375 14.5625 C6.64875 15.614375 6.36 16.66625 6.0625 17.75 C5.7325 17.75 5.4025 17.75 5.0625 17.75 C5.3925 15.44 5.7225 13.13 6.0625 10.75 C4.0825 11.74 4.0825 11.74 2.0625 12.75 C0.85995476 11.51446724 -0.32416232 10.26097661 -1.5 9 C-2.16128906 8.30390625 -2.82257813 7.6078125 -3.50390625 6.890625 C-4.9375 4.75 -4.9375 4.75 -4.77734375 2.546875 C-3.62028016 0.07129709 -2.6951751 -0.34776453 0 0 Z " fill="#C4C4C4" transform="translate(268.9375,134.25)"/>
<path d="M0 0 C0.68835938 0.59748047 0.68835938 0.59748047 1.390625 1.20703125 C7.16043175 6.4798378 7.16043175 6.4798378 14 10 C12.68 10.33 11.36 10.66 10 11 C9.34 13.64 8.68 16.28 8 19 C7.01 19 6.02 19 5 19 C4.67 20.32 4.34 21.64 4 23 C4.13019531 22.40832031 4.26039063 21.81664062 4.39453125 21.20703125 C4.8265561 18.73197298 5.11946314 16.51299256 5 14 C3.3545622 12.31237149 1.68711423 10.6459651 0 9 C-0.44441373 5.95628272 -0.29940518 3.05393279 0 0 Z " fill="#B6B6B6" transform="translate(213,184)"/>
<path d="M0 0 C3.17409372 1.46360988 4.72451888 3.80379621 6.859375 6.53515625 C7.65859375 7.54707031 8.4578125 8.55898437 9.28125 9.6015625 C9.88453125 10.38402344 10.4878125 11.16648438 11.109375 11.97265625 C10.109375 13.97265625 10.109375 13.97265625 8.265625 14.80078125 C6.109375 14.97265625 6.109375 14.97265625 4.328125 13.64453125 C3.7609375 13.0103125 3.19375 12.37609375 2.609375 11.72265625 C0.66922522 9.61978423 -0.99419519 7.89829816 -3.328125 6.22265625 C-3.84375 5.81015625 -4.359375 5.39765625 -4.890625 4.97265625 C-4.890625 3.98265625 -4.890625 2.99265625 -4.890625 1.97265625 C-1.890625 -0.02734375 -1.890625 -0.02734375 0 0 Z " fill="#D2D2D2" transform="translate(256.890625,150.02734375)"/>
<path d="M0 0 C0.66 0.33 1.32 0.66 2 1 C1.938125 1.7425 1.87625 2.485 1.8125 3.25 C2.03094296 6.45383006 2.90250005 7.64031256 5 10 C8.465 9.505 8.465 9.505 12 9 C12 10.32 12 11.64 12 13 C8.25498186 15.49667876 6.53666639 15.19633901 2.23046875 14.61328125 C-1.22547623 13.66304769 -2.91188874 11.82905397 -5 9 C-5 8.01 -5 7.02 -5 6 C-4.01 5.67 -3.02 5.34 -2 5 C-1.67 5.33 -1.34 5.66 -1 6 C-0.67 4.02 -0.34 2.04 0 0 Z " fill="#E2E2E2" transform="translate(223,201)"/>
<path d="M0 0 C0.721875 0.144375 1.44375 0.28875 2.1875 0.4375 C4.93495238 1.03455655 4.93495238 1.03455655 7.5 1.25 C11.07868932 2.3236068 12.64715949 4.13843722 15 7 C16.3125 10.3125 16.3125 10.3125 17 13 C13.05827682 13.44438168 11.47648334 13.36229047 8.26171875 10.91796875 C7.41222656 10.01691406 6.56273437 9.11585938 5.6875 8.1875 C4.82511719 7.29417969 3.96273437 6.40085938 3.07421875 5.48046875 C1 3 1 3 0 0 Z " fill="#DBDBDB" transform="translate(226,154)"/>
<path d="M0 0 C3.49174524 0.19398585 4.98361363 0.98696539 7.75 3.1875 C10.21461548 6.26826936 10.72903553 8.11617586 11 12 C6.25 14.875 6.25 14.875 4 16 C4.33 13.69 4.66 11.38 5 9 C4.34 9 3.68 9 3 9 C0.71512146 7.26349231 0.04736592 6.16578072 -0.75 3.375 C-0.8325 2.59125 -0.915 1.8075 -1 1 C-0.67 0.67 -0.34 0.34 0 0 Z " fill="#D5D5D5" transform="translate(263,176)"/>
<path d="M0 0 C0.33 0 0.66 0 1 0 C1 2.31 1 4.62 1 7 C1.66 7 2.32 7 3 7 C4.63676257 5.0399719 4.63676257 5.0399719 6 3 C6.2475 3.804375 6.495 4.60875 6.75 5.4375 C7.72227047 8.1228707 7.72227047 8.1228707 9.9375 8.875 C12.19937274 9.14078645 12.19937274 9.14078645 15 8 C15 8.66 15 9.32 15 10 C13 11.625 13 11.625 11 13 C13.97 13.495 13.97 13.495 17 14 C13.61044168 16.25970555 11.96074157 16.21472064 8.00390625 15.6171875 C4.76795008 14.62053823 3.076005 12.57927894 1 10 C-0.60725635 6.78548731 -0.05748185 3.56387464 0 0 Z " fill="#BFBFBF" transform="translate(257,113)"/>
<path d="M0 0 C3.25209513 1.08403171 3.91385694 1.79991716 6 4.375 C7.90538378 6.70711035 9.83759792 8.90195513 12 11 C10.68 11.99 9.36 12.98 8 14 C7.566875 13.505 7.13375 13.01 6.6875 12.5 C5.00259517 10.66781808 5.00259517 10.66781808 2 11 C-0.69921875 9.03125 -0.69921875 9.03125 -3.6875 6.5 C-4.68136719 5.6646875 -5.67523438 4.829375 -6.69921875 3.96875 C-7.45847656 3.3190625 -8.21773437 2.669375 -9 2 C-8.01 1.67 -7.02 1.34 -6 1 C-4.35 2.65 -2.7 4.3 -1 6 C-0.67 4.02 -0.34 2.04 0 0 Z " fill="#AFAFAF" transform="translate(252,96)"/>
<path d="M0 0 C7.48291572 6.15034169 7.48291572 6.15034169 10 10 C9.01 10.33 8.02 10.66 7 11 C6.67 12.32 6.34 13.64 6 15 C2.37 11.37 -1.26 7.74 -5 4 C-3.68 3.34 -2.36 2.68 -1 2 C-0.67 1.34 -0.34 0.68 0 0 Z " fill="#C4C4C4" transform="translate(212,117)"/>
<path d="M0 0 C7.48291572 6.15034169 7.48291572 6.15034169 10 10 C9.01 10.33 8.02 10.66 7 11 C6.34 12.32 5.68 13.64 5 15 C2.03 12.03 -0.94 9.06 -4 6 C-3.34 5.67 -2.68 5.34 -2 5 C-2 4.34 -2 3.68 -2 3 C-1.34 2.67 -0.68 2.34 0 2 C0 1.34 0 0.68 0 0 Z " fill="#ABABAB" transform="translate(218,111)"/>
<path d="M0 0 C0.33 1.32 0.66 2.64 1 4 C2.32 3.34 3.64 2.68 5 2 C5.28875 3.051875 5.5775 4.10375 5.875 5.1875 C6.77225193 8.22818711 7.76423419 11.08712344 9 14 C7.02 14.99 7.02 14.99 5 16 C1.61167481 13.21983574 -0.29037864 11.21561338 -0.875 6.875 C-1 3 -1 3 0 0 Z " fill="#D4D4D4" transform="translate(284,187)"/>
<path d="M0 0 C0.33 0 0.66 0 1 0 C1.33 6.93 1.66 13.86 2 21 C0.68 21 -0.64 21 -2 21 C-3.65497356 17.69005287 -3.10084335 14.00877 -3.0625 10.375 C-3.05798828 9.57320312 -3.05347656 8.77140625 -3.04882812 7.9453125 C-3.03703168 5.96350994 -3.01909605 3.98174567 -3 2 C-2.34 2 -1.68 2 -1 2 C-0.67 1.34 -0.34 0.68 0 0 Z " fill="#EEEEEE" transform="translate(223,130)"/>
<path d="M0 0 C0.66 0 1.32 0 2 0 C2.66 2.64 3.32 5.28 4 8 C3.34 8 2.68 8 2 8 C2.33 8.99 2.66 9.98 3 11 C2.0625 14.1875 2.0625 14.1875 1 17 C-1.97 17 -4.94 17 -8 17 C-7.505 15.515 -7.505 15.515 -7 14 C-4.9375 13.3125 -4.9375 13.3125 -3 13 C-2.86722656 12.22914062 -2.73445313 11.45828125 -2.59765625 10.6640625 C-2.42105469 9.66117188 -2.24445313 8.65828125 -2.0625 7.625 C-1.88847656 6.62726563 -1.71445312 5.62953125 -1.53515625 4.6015625 C-1 2 -1 2 0 0 Z " fill="#D4D4D4" transform="translate(275,110)"/>
<path d="M0 0 C1.051875 -0.02126953 1.051875 -0.02126953 2.125 -0.04296875 C4 0.1875 4 0.1875 6 2.1875 C5.82080114 4.9650824 5.23344468 5.97015496 3.1875 7.875 C1.07842076 9.14044755 -0.59388429 9.75783648 -3 10.1875 C-4 7.1875 -5 4.1875 -6 1.1875 C-3.77109005 0.07304502 -2.46944894 0.02269714 0 0 Z " fill="#EAEAEA" transform="translate(288,180.8125)"/>
<path d="M0 0 C0.33 0 0.66 0 1 0 C1 2.31 1 4.62 1 7 C1.99 6.67 2.98 6.34 4 6 C4.33 6.33 4.66 6.66 5 7 C5.66 6.34 6.32 5.68 7 5 C7.12375 5.639375 7.2475 6.27875 7.375 6.9375 C7.684375 7.9584375 7.684375 7.9584375 8 9 C8.66 9.33 9.32 9.66 10 10 C9.67 11.65 9.34 13.3 9 15 C10.98 15 12.96 15 15 15 C15 15.33 15 15.66 15 16 C9.30707666 16.45543387 6.3984985 15.68246386 2 12 C-0.80476313 8.43030146 -0.14466817 4.34004512 0 0 Z " fill="#A9A9A9" transform="translate(250,183)"/>
<path d="M0 0 C1.32 0 2.64 0 4 0 C5.3125 2.625 5.3125 2.625 6 6 C4.62336186 8.43516865 3.00561708 9.99438292 1 12 C0.01 11.67 -0.98 11.34 -2 11 C-2 10.34 -2 9.68 -2 9 C-3.65 9.33 -5.3 9.66 -7 10 C-7.33 9.34 -7.66 8.68 -8 8 C-7.05125 7.79375 -6.1025 7.5875 -5.125 7.375 C-1.70833333 6.29166667 -1.70833333 6.29166667 -0.625 2.875 C-0.41875 1.92625 -0.2125 0.9775 0 0 Z " fill="#F0F0F0" transform="translate(235,202)"/>
<path d="M0 0 C0.99 0.33 1.98 0.66 3 1 C2.34 3.97 1.68 6.94 1 10 C-1.75 10.6875 -1.75 10.6875 -5 11 C-7.375 9.5625 -7.375 9.5625 -9 8 C-8.071875 7.4225 -7.14375 6.845 -6.1875 6.25 C-3.40184158 4.28365288 -1.81261304 2.81962028 0 0 Z " fill="#E7E7E7" transform="translate(288,149)"/>
<path d="M0 0 C0.33 0 0.66 0 1 0 C1.33 1.98 1.66 3.96 2 6 C2.66 5.34 3.32 4.68 4 4 C4.33 4.99 4.66 5.98 5 7 C5.66 6.67 6.32 6.34 7 6 C7.33 6.66 7.66 7.32 8 8 C11.02934491 8.65772428 11.02934491 8.65772428 14 9 C14 9.33 14 9.66 14 10 C12.35 10.33 10.7 10.66 9 11 C9 11.99 9 12.98 9 14 C9.66 14.33 10.32 14.66 11 15 C6.88047733 14.80839429 5.25017659 14.22298348 2.125 11.4375 C-0.71512526 7.70813425 -0.39180978 4.54499343 0 0 Z " fill="#B2B2B2" transform="translate(215,175)"/>
<path d="M0 0 C3.6005691 0.41603214 5.03190346 1.78987933 7.25 4.5625 C7.77078125 5.20316406 8.2915625 5.84382812 8.828125 6.50390625 C9.21484375 6.99761719 9.6015625 7.49132812 10 8 C9.34 8 8.68 8 8 8 C7.67 8.66 7.34 9.32 7 10 C6.34 9.01 5.68 8.02 5 7 C4.01 7 3.02 7 2 7 C1.67 7.66 1.34 8.32 1 9 C-0.65 7.02 -2.3 5.04 -4 3 C-3.01 2.34 -2.02 1.68 -1 1 C-0.67 0.67 -0.34 0.34 0 0 Z " fill="#A9A9A9" transform="translate(225,148)"/>
<path d="M0 0 C4.97631579 4.81578947 4.97631579 4.81578947 5.0625 9.125 C5.041875 10.07375 5.02125 11.0225 5 12 C3 9 3 9 3 7 C1.35 7 -0.3 7 -2 7 C-2 6.34 -2 5.68 -2 5 C-4.64 5 -7.28 5 -10 5 C-10 4.34 -10 3.68 -10 3 C-7.69 3 -5.38 3 -3 3 C-3 2.34 -3 1.68 -3 1 C-2.01 0.67 -1.02 0.34 0 0 Z M0 10 C2 11 2 11 2 11 Z " fill="#CECECE" transform="translate(236,195)"/>
<path d="M0 0 C1.31611677 0.95336021 2.62778961 1.91285774 3.9375 2.875 C4.66839844 3.40867188 5.39929688 3.94234375 6.15234375 4.4921875 C8 6 8 6 9 8 C8.71887936 10.00800456 8.38932033 12.01014051 8 14 C5.13275314 13.42655063 4.1385485 13.1385485 2 11 C2.20625 10.236875 2.4125 9.47375 2.625 8.6875 C3.33523003 5.80868649 3.33523003 5.80868649 1.0625 3.1875 C0.381875 2.465625 -0.29875 1.74375 -1 1 C-0.67 0.67 -0.34 0.34 0 0 Z " fill="#C8C8C8" transform="translate(236,130)"/>
<path d="M0 0 C0.78375 0.639375 1.5675 1.27875 2.375 1.9375 C4.79539281 3.98142313 4.79539281 3.98142313 7 5 C6.01 8.3 5.02 11.6 4 15 C3.01 14.67 2.02 14.34 1 14 C0.83081732 12.41693353 0.66476064 10.83353281 0.5 9.25 C0.4071875 8.36828125 0.314375 7.4865625 0.21875 6.578125 C0 4 0 4 0 0 Z " fill="#ECECEC" transform="translate(257,106)"/>
<path d="M0 0 C2 1.375 2 1.375 4 3 C4 3.66 4 4.32 4 5 C2.68 5.33 1.36 5.66 0 6 C-0.33 11.94 -0.66 17.88 -1 24 C-1.66 23.67 -2.32 23.34 -3 23 C-3 17.39 -3 11.78 -3 6 C-3.66 5.67 -4.32 5.34 -5 5 C-5.66 6.32 -6.32 7.64 -7 9 C-6.67 7.35 -6.34 5.7 -6 4 C-4.68 4 -3.36 4 -2 4 C-2 3.01 -2 2.02 -2 1 C-1.34 0.67 -0.68 0.34 0 0 Z " fill="#B8B8B8" transform="translate(203,125)"/>
<path d="M0 0 C2 1.375 2 1.375 4 3 C4 3.66 4 4.32 4 5 C4.66 5.33 5.32 5.66 6 6 C6 7.66666667 6 9.33333333 6 11 C5.01 11.33 4.02 11.66 3 12 C1.02 10.02 -0.96 8.04 -3 6 C-2.67 5.01 -2.34 4.02 -2 3 C-1.01 3.33 -0.02 3.66 1 4 C0.67 2.68 0.34 1.36 0 0 Z " fill="#D5D5D5" transform="translate(196,144)"/>
<path d="M0 0 C0.33 0 0.66 0 1 0 C1.1875 3.3125 1.1875 3.3125 1 7 C0.01979625 8.0194119 -0.97803008 9.02246356 -2 10 C-1.76956136 12.65466049 -1.76956136 12.65466049 -1 15 C-3.64 15 -6.28 15 -9 15 C-9 14.01 -9 13.02 -9 12 C-8.34 12 -7.68 12 -7 12 C-7.33 11.01 -7.66 10.02 -8 9 C-7.05125 8.814375 -6.1025 8.62875 -5.125 8.4375 C-1.61628301 7.26599195 -1.61628301 7.26599195 -0.625 3.375 C-0.315625 1.704375 -0.315625 1.704375 0 0 Z " fill="#A9A9A9" transform="translate(300,189)"/>
<path d="M0 0 C-0.33 0.99 -0.66 1.98 -1 3 C-3.0625 4 -3.0625 4 -6 5 C-7.3347684 5.49615633 -8.66801669 5.99641463 -10 6.5 C-10.680625 6.75394531 -11.36125 7.00789063 -12.0625 7.26953125 C-14.3886313 8.14652027 -16.69688624 9.06436004 -19 10 C-13.98143436 4.3338775 -7.86557283 -0.48467438 0 0 Z " fill="#BBBBBB" transform="translate(83,320)"/>
<path d="M0 0 C2.38081145 3.57121718 2.26906871 5.26674633 2.25 9.5 C2.25515625 10.6446875 2.2603125 11.789375 2.265625 12.96875 C2 16 2 16 0 19 C-1.58696844 15.82606311 -1.1431447 12.41825795 -1.125 8.9375 C-1.12886719 8.19177734 -1.13273437 7.44605469 -1.13671875 6.67773438 C-1.12663501 1.12663501 -1.12663501 1.12663501 0 0 Z " fill="#B6B6B6" transform="translate(339,158)"/>
<path d="M0 0 C2 0.75 2 0.75 4 3.75 C3.34 3.75 2.68 3.75 2 3.75 C1.67 5.73 1.34 7.71 1 9.75 C-0.98 8.1 -2.96 6.45 -5 4.75 C-4.625 2.8125 -4.625 2.8125 -4 0.75 C-2 -0.25 -2 -0.25 0 0 Z " fill="#B4B4B4" transform="translate(269,134.25)"/>
<path d="M0 0 C0.54269531 0.40992188 1.08539063 0.81984375 1.64453125 1.2421875 C2.35996094 1.78101563 3.07539063 2.31984375 3.8125 2.875 C4.52019531 3.40867188 5.22789062 3.94234375 5.95703125 4.4921875 C7.60456297 5.70814781 9.29624211 6.86416141 11 8 C9.20866022 8.05391993 7.41686101 8.09275571 5.625 8.125 C4.62726563 8.14820313 3.62953125 8.17140625 2.6015625 8.1953125 C0 8 0 8 -2 6 C-1.34 6 -0.68 6 0 6 C-0.2784375 5.071875 -0.2784375 5.071875 -0.5625 4.125 C-1 2 -1 2 0 0 Z " fill="#D6D6D6" transform="translate(275,153)"/>
<path d="M0 0 C0.66 0 1.32 0 2 0 C2 8.91 2 17.82 2 27 C-0.13368793 23.7994681 -0.23623442 23.05955606 -0.16015625 19.40234375 C-0.14919922 18.51869141 -0.13824219 17.63503906 -0.12695312 16.72460938 C-0.10568359 15.80486328 -0.08441406 14.88511719 -0.0625 13.9375 C-0.02813029 12.1133592 0.00202491 10.28913262 0.02734375 8.46484375 C0.05429321 7.25235962 0.05429321 7.25235962 0.08178711 6.01538086 C0.13522988 3.92831102 0.13522988 3.92831102 -1 2 C-0.67 1.34 -0.34 0.68 0 0 Z " fill="#FBFBFB" transform="translate(205,130)"/>
<path d="M0 0 C2.31 1.98 4.62 3.96 7 6 C6.67 6.66 6.34 7.32 6 8 C2.6875 8.9375 2.6875 8.9375 -1 9 C-3.4375 6.5625 -3.4375 6.5625 -5 4 C-2.525 4.495 -2.525 4.495 0 5 C0 3.35 0 1.7 0 0 Z " fill="#A4A4A4" transform="translate(281,174)"/>
<path d="M0 0 C3.25543229 0.34879632 4.01873107 1.02133261 6.25 3.5625 C6.8275 4.366875 7.405 5.17125 8 6 C6.515 8.475 6.515 8.475 5 11 C4.34 10.67 3.68 10.34 3 10 C2.66666667 8.66666667 2.33333333 7.33333333 2 6 C1.34 5.67 0.68 5.34 0 5 C0 3.35 0 1.7 0 0 Z " fill="#DEDEDE" transform="translate(237,121)"/>
<path d="M0 0 C2.77393671 1.42079685 3.91422561 2.70996148 5.5625 5.3125 C4.5725 5.6425 3.5825 5.9725 2.5625 6.3125 C1.82926204 8.32758358 1.82926204 8.32758358 1.5625 10.3125 C-0.90485884 7.84514116 -1.3447384 5.59078479 -2.4375 2.3125 C-3.0975 1.6525 -3.7575 0.9925 -4.4375 0.3125 C-2.4375 -0.6875 -2.4375 -0.6875 0 0 Z " fill="#D9D9D9" transform="translate(216.4375,121.6875)"/>
<path d="M0 0 C2.97 0.495 2.97 0.495 6 1 C5.38125 1.165 4.7625 1.33 4.125 1.5 C0.72243051 3.90181375 0.77387974 7.00162134 0 11 C-0.99 11 -1.98 11 -3 11 C-3.33 12.32 -3.66 13.64 -4 15 C-3.91306859 13.20741442 -3.80489496 11.41584856 -3.6875 9.625 C-3.60048828 8.12839844 -3.60048828 8.12839844 -3.51171875 6.6015625 C-3.34285156 5.74304688 -3.17398438 4.88453125 -3 4 C-2.01 3.34 -1.02 2.68 0 2 C0 1.34 0 0.68 0 0 Z " fill="#ABABAB" transform="translate(221,192)"/>
<path d="M0 0 C1.98 0 3.96 0 6 0 C6.66 1.65 7.32 3.3 8 5 C4.7 5.33 1.4 5.66 -2 6 C-1.34 4.02 -0.68 2.04 0 0 Z " fill="#E8E8E8" transform="translate(278,139)"/>
<path d="M0 0 C4.20240011 3.71750779 6.99782679 8.31660979 10 13 C9.34 13.66 8.68 14.32 8 15 C7.67 14.01 7.34 13.02 7 12 C6.01 12.33 5.02 12.66 4 13 C2 7.25 2 7.25 2 5 C1.34 4.67 0.68 4.34 0 4 C0 2.68 0 1.36 0 0 Z " fill="#C2C2C2" transform="translate(197,200)"/>
<path d="M0 0 C0.66 0 1.32 0 2 0 C4.49860631 4.30315531 3.81782142 7.39233783 2.80078125 12.01171875 C2 14 2 14 -1 16 C-0.73958333 14.01432292 -0.47916667 12.02864583 -0.21875 10.04296875 C0.053233 7.84528294 0.053233 7.84528294 0 5 C0 3.33333333 0 1.66666667 0 0 Z " fill="#B5B5B5" transform="translate(277,110)"/>
<path d="M0 0 C0.66 0.33 1.32 0.66 2 1 C2 1.99 2 2.98 2 4 C-8.56 4 -19.12 4 -30 4 C-30 3.67 -30 3.34 -30 3 C-20.43 2.67 -10.86 2.34 -1 2 C-0.67 1.34 -0.34 0.68 0 0 Z " fill="#C7C7C7" transform="translate(225,394)"/>
<path d="M0 0 C0.66 0.33 1.32 0.66 2 1 C1.979375 1.7425 1.95875 2.485 1.9375 3.25 C1.99328688 5.70462279 2.3069904 7.66109261 3 10 C1.68 9.67 0.36 9.34 -1 9 C-1.33 9.99 -1.66 10.98 -2 12 C-3.5 10.6875 -3.5 10.6875 -5 9 C-5 8.01 -5 7.02 -5 6 C-4.01 5.67 -3.02 5.34 -2 5 C-1.67 5.33 -1.34 5.66 -1 6 C-0.67 4.02 -0.34 2.04 0 0 Z " fill="#C4C4C4" transform="translate(223,201)"/>
<path d="M0 0 C0.33 0 0.66 0 1 0 C1 2.31 1 4.62 1 7 C1.66 7 2.32 7 3 7 C4.63676257 5.0399719 4.63676257 5.0399719 6 3 C6.66 4.98 7.32 6.96 8 9 C7.34 9 6.68 9 6 9 C5.67 9.99 5.34 10.98 5 12 C4.01 12 3.02 12 2 12 C-0.60018816 8.09971775 -0.15085514 4.52565431 0 0 Z " fill="#C4C4C4" transform="translate(257,113)"/>
<path d="M0 0 C2 2 2 2 2.1875 5.5 C2 9 2 9 1 11 C-0.32 10.34 -1.64 9.68 -3 9 C-2.44271087 5.65626525 -1.64826111 2.96687001 0 0 Z " fill="#C2C2C2" transform="translate(305,187)"/>
<path d="M0 0 C12.66970387 -0.3690205 12.66970387 -0.3690205 18 2 C18 2.33 18 2.66 18 3 C15.37438891 3.08074203 12.75124324 3.1403623 10.125 3.1875 C9.00544922 3.22520508 9.00544922 3.22520508 7.86328125 3.26367188 C5.6953125 3.29296875 5.6953125 3.29296875 2 3 C1.34 2.01 0.68 1.02 0 0 Z " fill="#C8C8C8" transform="translate(255,94)"/>
<path d="M0 0 C1.32 0.33 2.64 0.66 4 1 C4.33 2.32 4.66 3.64 5 5 C1.65474779 5.83631305 -0.75130556 6.29947778 -4 5 C-5.75 3.4375 -5.75 3.4375 -7 2 C-4.3333581 0.66667905 -2.83319697 1.32897967 0 2 C0 1.34 0 0.68 0 0 Z " fill="#F4F4F4" transform="translate(259,175)"/>
<path d="M0 0 C1.65 0.33 3.3 0.66 5 1 C5 3.97 5 6.94 5 10 C3.62437146 8.71034824 2.29233607 7.37310707 1 6 C1 5.34 1 4.68 1 4 C0.34 4 -0.32 4 -1 4 C-0.67 2.68 -0.34 1.36 0 0 Z " fill="#EEEEEE" transform="translate(233,173)"/>
<path d="M0 0 C2.78211944 0.37596209 4.5879284 0.67318459 6.8125 2.4375 C8 4 8 4 8 6 C6.68 6 5.36 6 4 6 C3.34 6.66 2.68 7.32 2 8 C1.01 7.01 0.02 6.02 -1 5 C-0.34 4.67 0.32 4.34 1 4 C0.67 2.68 0.34 1.36 0 0 Z " fill="#C1C1C1" transform="translate(229,168)"/>
<path d="M0 0 C0.66 0 1.32 0 2 0 C2.66 2.64 3.32 5.28 4 8 C3.34 8 2.68 8 2 8 C2.33 8.99 2.66 9.98 3 11 C2.01 11.66 1.02 12.32 0 13 C0 11.68 0 10.36 0 9 C-0.185625 7.80375 -0.37125 6.6075 -0.5625 5.375 C-1 2 -1 2 0 0 Z " fill="#F0F0F0" transform="translate(275,110)"/>
<path d="M0 0 C0.99 0.33 1.98 0.66 3 1 C2.67 1.66 2.34 2.32 2 3 C-6.58 3 -15.16 3 -24 3 C-24 2.67 -24 2.34 -24 2 C-23.30849854 1.97494385 -22.61699707 1.9498877 -21.90454102 1.92407227 C-18.79032134 1.80847839 -15.67643211 1.68558758 -12.5625 1.5625 C-10.92958008 1.50352539 -10.92958008 1.50352539 -9.26367188 1.44335938 C-8.22919922 1.40146484 -7.19472656 1.35957031 -6.12890625 1.31640625 C-5.17056885 1.27974854 -4.21223145 1.24309082 -3.22485352 1.20532227 C-1.02861075 1.24165576 -1.02861075 1.24165576 0 0 Z " fill="#D0D0D0" transform="translate(173,395)"/>
<path d="M0 0 C0 0.66 0 1.32 0 2 C-0.99 2.33 -1.98 2.66 -3 3 C-4.21869929 5.50447516 -4.21869929 5.50447516 -5 8 C-6.32 7.34 -7.64 6.68 -9 6 C-8.34 6 -7.68 6 -7 6 C-7.33 4.68 -7.66 3.36 -8 2 C-4.77208445 -0.1519437 -3.71599191 -0.20086443 0 0 Z " fill="#F1F1F1" transform="translate(331,319)"/>
<path d="M0 0 C0.33 0.66 0.66 1.32 1 2 C2.32 1.67 3.64 1.34 5 1 C4.67 3.97 4.34 6.94 4 10 C1.525 9.01 1.525 9.01 -1 8 C-1.125 2.25 -1.125 2.25 0 0 Z " fill="#F2F2F2" transform="translate(217,173)"/>
<path d="M0 0 C2.31 0.66 4.62 1.32 7 2 C3.25474201 5.74525799 -0.98270909 5.68909949 -6 6 C-5.36578125 5.88785156 -4.7315625 5.77570313 -4.078125 5.66015625 C-3.39234375 5.44230469 -2.7065625 5.22445313 -2 5 C-0.70339566 2.50965614 -0.70339566 2.50965614 0 0 Z " fill="#D6D6D6" transform="translate(331,394)"/>
<path d="M0 0 C0.33 0 0.66 0 1 0 C0.88541307 1.43836751 0.75790884 2.87570966 0.625 4.3125 C0.55539062 5.11300781 0.48578125 5.91351563 0.4140625 6.73828125 C0 9 0 9 -2 12 C-2.99 12 -3.98 12 -5 12 C-4.35550393 8.98782888 -3.34977818 6.48344164 -1.9375 3.75 C-1.57527344 3.04359375 -1.21304687 2.3371875 -0.83984375 1.609375 C-0.56269531 1.07828125 -0.28554688 0.5471875 0 0 Z " fill="#D6D6D6" transform="translate(459,387)"/>
<path d="M0 0 C-1.32 0.33 -2.64 0.66 -4 1 C-4 1.66 -4 2.32 -4 3 C-4.66 3 -5.32 3 -6 3 C-6 3.66 -6 4.32 -6 5 C-7.75 6.125 -7.75 6.125 -10 7 C-12.140625 6.0546875 -12.140625 6.0546875 -14 5 C-12.61217515 4.1533966 -11.21430603 3.32324661 -9.8125 2.5 C-9.03519531 2.0359375 -8.25789063 1.571875 -7.45703125 1.09375 C-4.75896614 -0.10729647 -2.9193018 -0.20741043 0 0 Z " fill="#A1A1A1" transform="translate(407,320)"/>
<path d="M0 0 C0 3.77910478 -0.99703962 4.46106101 -3.5 7.1875 C-4.47453125 8.26064453 -4.47453125 8.26064453 -5.46875 9.35546875 C-5.9740625 9.89816406 -6.479375 10.44085938 -7 11 C-7.33 9.68 -7.66 8.36 -8 7 C-5.36 4.69 -2.72 2.38 0 0 Z " fill="#AEAEAE" transform="translate(305,216)"/>
<path d="M0 0 C1.98 0 3.96 0 6 0 C5.67 0.66 5.34 1.32 5 2 C5.99 2.66 6.98 3.32 8 4 C5.29120665 5.35439668 2.99066732 5.06501451 0 5 C0 3.35 0 1.7 0 0 Z " fill="#F1F1F1" transform="translate(259,193)"/>
<path d="M0 0 C0.33 1.32 0.66 2.64 1 4 C2.32 3.34 3.64 2.68 5 2 C4.67 4.64 4.34 7.28 4 10 C2 10 2 10 0.3125 8.9375 C-1 7 -1 7 -0.6875 3.3125 C-0.460625 2.219375 -0.23375 1.12625 0 0 Z " fill="#DFDFDF" transform="translate(284,187)"/>
<path d="M0 0 C1.98 0.66 3.96 1.32 6 2 C6.33 3.98 6.66 5.96 7 8 C5.02 7.34 3.04 6.68 1 6 C0.67 4.02 0.34 2.04 0 0 Z " fill="#EDEDED" transform="translate(275,172)"/>
<path d="M0 0 C1.65 0 3.3 0 5 0 C5.66 1.98 6.32 3.96 7 6 C4.69 6 2.38 6 0 6 C0.66 5.01 1.32 4.02 2 3 C1.34 2.67 0.68 2.34 0 2 C0 1.34 0 0.68 0 0 Z " fill="#D8D8D8" transform="translate(224,167)"/>
<path d="M0 0 C0.66 0 1.32 0 2 0 C2 5.61 2 11.22 2 17 C1.01 16.67 0.02 16.34 -1 16 C-0.91621094 15.33613281 -0.83242187 14.67226562 -0.74609375 13.98828125 C-0.21652501 9.39645105 0.16911797 5.53033212 -1 1 C-0.67 0.67 -0.34 0.34 0 0 Z " fill="#FAFAFA" transform="translate(205,162)"/>
<path d="M0 0 C0.33 0 0.66 0 1 0 C1.33 3.3 1.66 6.6 2 10 C1.34 10 0.68 10 0 10 C-0.33 10.99 -0.66 11.98 -1 13 C-2.21822405 8.39782024 -2.1597995 4.319599 0 0 Z " fill="#F4F4F4" transform="translate(134,357)"/>
<path d="M0 0 C1.98 0.495 1.98 0.495 4 1 C4 2.65 4 4.3 4 6 C2.68 6.33 1.36 6.66 0 7 C-1.04449911 3.86650268 -0.93423645 3.01031744 0 0 Z " fill="#DBDBDB" transform="translate(215,165)"/>
<path d="M0 0 C0.66 0.66 1.32 1.32 2 2 C1.625 5.625 1.625 5.625 1 9 C-0.65 8.67 -2.3 8.34 -4 8 C-4 6.68 -4 5.36 -4 4 C-3.01 4 -2.02 4 -1 4 C-0.67 2.68 -0.34 1.36 0 0 Z " fill="#F3F3F3" transform="translate(222,199)"/>
<path d="M0 0 C3.7952131 1.49097658 5.61042731 3.75700849 8 7 C7.67 7.66 7.34 8.32 7 9 C4.9375 9.625 4.9375 9.625 3 10 C3.2475 9.4225 3.495 8.845 3.75 8.25 C3.87375 7.13625 3.87375 7.13625 4 6 C2.10413616 3.85410577 2.10413616 3.85410577 0 2 C0 1.34 0 0.68 0 0 Z " fill="#F1F1F1" transform="translate(260,155)"/>
<path d="M0 0 C2.125 0.375 2.125 0.375 4 1 C-0.625 6.875 -0.625 6.875 -4 8 C-2.25 2.25 -2.25 2.25 0 0 Z " fill="#BEBEBE" transform="translate(286,388)"/>
<path d="M0 0 C3.25543229 0.34879632 4.01873107 1.02133261 6.25 3.5625 C6.8275 4.366875 7.405 5.17125 8 6 C7.34 6 6.68 6 6 6 C5.67 6.66 5.34 7.32 5 8 C0 2.25 0 2.25 0 0 Z " fill="#BFBFBF" transform="translate(227,150)"/>
<path d="M0 0 C2 3 2 3 1.625 5.6875 C1.41875 6.450625 1.2125 7.21375 1 8 C-0.65 8 -2.3 8 -4 8 C-2.87548273 5.0280615 -1.77706209 2.66559313 0 0 Z " fill="#D9D9D9" transform="translate(325,340)"/>
<path d="M0 0 C0.33 0 0.66 0 1 0 C1 2.31 1 4.62 1 7 C1.99 6.67 2.98 6.34 4 6 C4.66 6.66 5.32 7.32 6 8 C5.67 8.99 5.34 9.98 5 11 C3.0625 10.625 3.0625 10.625 1 10 C-0.60725635 6.78548731 -0.05748185 3.56387464 0 0 Z " fill="#C0C0C0" transform="translate(250,183)"/>
<path d="M0 0 C1.65 0.33 3.3 0.66 5 1 C4.34 2.65 3.68 4.3 3 6 C2.01 6 1.02 6 0 6 C-1.125 2.25 -1.125 2.25 0 0 Z " fill="#F0F0F0" transform="translate(291,92)"/>
<path d="M0 0 C2.475 0.495 2.475 0.495 5 1 C5.33 2.32 5.66 3.64 6 5 C4.34385343 5.38218767 2.67542976 5.71395102 1 6 C0 5 0 5 -0.0625 2.4375 C-0.041875 1.633125 -0.02125 0.82875 0 0 Z " fill="#E8E8E8" transform="translate(216,191)"/>
<path d="M0 0 C0.33 0 0.66 0 1 0 C1.3125 2.25 1.3125 2.25 1 5 C-1.5 7.3125 -1.5 7.3125 -4 9 C-4 6.36 -4 3.72 -4 1 C-2.68 1.33 -1.36 1.66 0 2 C0 1.34 0 0.68 0 0 Z " fill="#F2F2F2" transform="translate(271,183)"/>
<path d="M0 0 C3.375 -0.125 3.375 -0.125 7 0 C7.66 0.66 8.32 1.32 9 2 C8.67 2.99 8.34 3.98 8 5 C5.125 4.75 5.125 4.75 2 4 C0.625 1.9375 0.625 1.9375 0 0 Z " fill="#F1F1F1" transform="translate(285,181)"/>
<path d="M0 0 C3.91211733 1.15585285 6.8745041 2.35534962 10 5 C9.67 5.66 9.34 6.32 9 7 C7.68176698 6.40844669 6.37052949 5.80128537 5.0625 5.1875 C4.33160156 4.85105469 3.60070312 4.51460938 2.84765625 4.16796875 C1 3 1 3 0 0 Z " fill="#F5F5F5" transform="translate(68,391)"/>
<path d="M0 0 C0.66 0.99 1.32 1.98 2 3 C2.99 3.33 3.98 3.66 5 4 C4.67 4.99 4.34 5.98 4 7 C1.9375 7.6875 1.9375 7.6875 0 8 C-0.98120464 4.94736336 -0.98120464 3.05263664 0 0 Z " fill="#CACACA" transform="translate(385,335)"/>
<path d="M0 0 C0.33 0 0.66 0 1 0 C1.02687279 1.81242052 1.04633715 3.62495233 1.0625 5.4375 C1.07410156 6.44683594 1.08570313 7.45617187 1.09765625 8.49609375 C1 11 1 11 0 12 C-1.66617115 12.04063832 -3.33388095 12.042721 -5 12 C-5 11.34 -5 10.68 -5 10 C-3.68 9.67 -2.36 9.34 -1 9 C-0.67 6.03 -0.34 3.06 0 0 Z " fill="#8A8A8A" transform="translate(286,329)"/>
<path d="M0 0 C2.42102911 1.18098981 3.82068009 2.2331559 5.5625 4.25 C5.2325 4.91 4.9025 5.57 4.5625 6.25 C3.2425 4.93 1.9225 3.61 0.5625 2.25 C-0.4275 2.91 -1.4175 3.57 -2.4375 4.25 C-3.0975 2.93 -3.7575 1.61 -4.4375 0.25 C-2.4375 -0.75 -2.4375 -0.75 0 0 Z " fill="#9E9E9E" transform="translate(357.4375,322.75)"/>
<path d="M0 0 C4.95 0 9.9 0 15 0 C14.67 0.66 14.34 1.32 14 2 C13.32453125 1.98839844 12.6490625 1.97679687 11.953125 1.96484375 C11.06109375 1.95582031 10.1690625 1.94679688 9.25 1.9375 C8.36828125 1.92589844 7.4865625 1.91429687 6.578125 1.90234375 C4.2181162 1.99173802 2.25501476 2.33087179 0 3 C0 2.01 0 1.02 0 0 Z " fill="#F8F8F8" transform="translate(267,321)"/>
<path d="M0 0 C4.92307692 4.30769231 4.92307692 4.30769231 5.3125 7.8125 C5.209375 8.534375 5.10625 9.25625 5 10 C2.9754262 8.06745228 1.57894208 6.36841312 0 4 C0 2.68 0 1.36 0 0 Z " fill="#A7A7A7" transform="translate(185,379)"/>
<path d="M0 0 C0.33 0 0.66 0 1 0 C1.33 2.31 1.66 4.62 2 7 C0.68 6.67 -0.64 6.34 -2 6 C-2.33 6.66 -2.66 7.32 -3 8 C-2.25 2.25 -2.25 2.25 0 0 Z " fill="#BCBCBC" transform="translate(301,365)"/>
<path d="M0 0 C0.66 0.99 1.32 1.98 2 3 C1.01 4.485 1.01 4.485 0 6 C-1.32 5.67 -2.64 5.34 -4 5 C-4 3.68 -4 2.36 -4 1 C-2.68 1.33 -1.36 1.66 0 2 C0 1.34 0 0.68 0 0 Z " fill="#D7D7D7" transform="translate(226,209)"/>
<path d="M0 0 C-1.09068668 3.77545388 -1.9083091 6.47043472 -5 9 C-5.36666667 3.5 -5.36666667 3.5 -3.625 1.125 C-2 0 -2 0 0 0 Z " fill="#BDBDBD" transform="translate(333,200)"/>
<path d="M0 0 C1.32 1.32 2.64 2.64 4 4 C3.01 4.99 2.02 5.98 1 7 C1.66 7.33 2.32 7.66 3 8 C1.68 8 0.36 8 -1 8 C-0.67 5.36 -0.34 2.72 0 0 Z " fill="#C0C0C0" transform="translate(207,178)"/>
<path d="M0 0 C1.65 0.99 3.3 1.98 5 3 C4.67 3.99 4.34 4.98 4 6 C2.02 6 0.04 6 -2 6 C-1.34 4.02 -0.68 2.04 0 0 Z " fill="#F1F1F1" transform="translate(227,96)"/>
<path d="M0 0 C-0.6875 2.4375 -0.6875 2.4375 -2 5 C-4.625 5.8125 -4.625 5.8125 -7 6 C-3.61538462 0 -3.61538462 0 0 0 Z " fill="#D1D1D1" transform="translate(313,211)"/>
<path d="M0 0 C1.32 1.32 2.64 2.64 4 4 C3.01 4 2.02 4 1 4 C0.67 2.68 0.34 1.36 0 0 Z M-2 3 C-1.01 3.33 -0.02 3.66 1 4 C1 4.66 1 5.32 1 6 C0.34 6 -0.32 6 -1 6 C-1.33 6.66 -1.66 7.32 -2 8 C-2.5625 6.0625 -2.5625 6.0625 -3 4 C-2.67 3.67 -2.34 3.34 -2 3 Z " fill="#A2A2A2" transform="translate(267,160)"/>
<path d="M0 0 C-0.33 1.65 -0.66 3.3 -1 5 C-2.98 4.34 -4.96 3.68 -7 3 C-5.40442685 -0.19114631 -3.35905282 0 0 0 Z " fill="#EFEFEF" transform="translate(286,155)"/>
<path d="M0 0 C-3.00617269 3.00617269 -5.82381598 2.59585316 -10 3 C-10.33 2.34 -10.66 1.68 -11 1 C-7.32589215 -0.17571451 -3.83070817 -0.07366746 0 0 Z " fill="#D1D1D1" transform="translate(328,353)"/>
<path d="M0 0 C2.31 0 4.62 0 7 0 C7 0.66 7 1.32 7 2 C6.34 2 5.68 2 5 2 C5 2.66 5 3.32 5 4 C3.68 4 2.36 4 1 4 C0.67 2.68 0.34 1.36 0 0 Z " fill="#E3E3E3" transform="translate(292,181)"/>
<path d="M0 0 C0 1.65 0 3.3 0 5 C-0.99 5 -1.98 5 -3 5 C-3.66 3.68 -4.32 2.36 -5 1 C-3 0 -3 0 0 0 Z " fill="#E6E6E6" transform="translate(207,179)"/>
<path d="M0 0 C0.99 0.33 1.98 0.66 3 1 C3.6875 3.0625 3.6875 3.0625 4 5 C2.35 5.33 0.7 5.66 -1 6 C-0.67 4.02 -0.34 2.04 0 0 Z " fill="#F4F4F4" transform="translate(282,139)"/>
<path d="M0 0 C0.66 0.66 1.32 1.32 2 2 C1.01 3.98 0.02 5.96 -1 8 C-1.99 8 -2.98 8 -4 8 C-2.87548273 5.0280615 -1.77706209 2.66559313 0 0 Z " fill="#D2D2D2" transform="translate(63,330)"/>
<path d="M0 0 C0.66 1.32 1.32 2.64 2 4 C0.35 5.32 -1.3 6.64 -3 8 C-3.66 7.67 -4.32 7.34 -5 7 C-3.35 4.69 -1.7 2.38 0 0 Z " fill="#9B9B9B" transform="translate(192,323)"/>
<path d="M0 0 C2.64 0.66 5.28 1.32 8 2 C4.77208445 4.1519437 3.71599191 4.20086443 0 4 C0 2.68 0 1.36 0 0 Z " fill="#A8A8A8" transform="translate(266,125)"/>
<path d="M0 0 C1.32 0.33 2.64 0.66 4 1 C3.67 1.66 3.34 2.32 3 3 C3.99 3.33 4.98 3.66 6 4 C2.25 5.125 2.25 5.125 0 4 C0 2.68 0 1.36 0 0 Z " fill="#D4D4D4" transform="translate(299,339)"/>
<path d="M0 0 C0.66 0.33 1.32 0.66 2 1 C2 4.63 2 8.26 2 12 C1.67 12 1.34 12 1 12 C0.855625 10.9275 0.71125 9.855 0.5625 8.75 C0.10012053 5.20640191 0.10012053 5.20640191 -0.625 2.625 C-0.74875 2.08875 -0.8725 1.5525 -1 1 C-0.67 0.67 -0.34 0.34 0 0 Z " fill="#F3F3F3" transform="translate(263,299)"/>
<path d="M0 0 C2.97 0 5.94 0 9 0 C7.375 1.5625 7.375 1.5625 5 3 C1.75 2.6875 1.75 2.6875 -1 2 C-0.67 1.34 -0.34 0.68 0 0 Z " fill="#F0F0F0" transform="translate(266,235)"/>
<path d="M0 0 C0.66 0.33 1.32 0.66 2 1 C1.979375 1.7425 1.95875 2.485 1.9375 3.25 C1.99328688 5.70462279 2.3069904 7.66109261 3 10 C1.68 9.34 0.36 8.68 -1 8 C-0.67 5.36 -0.34 2.72 0 0 Z " fill="#B0B0B0" transform="translate(223,201)"/>
<path d="M0 0 C2.475 0.495 2.475 0.495 5 1 C5 1.99 5 2.98 5 4 C4.01 4 3.02 4 2 4 C1.34 2.68 0.68 1.36 0 0 Z " fill="#E7E7E7" transform="translate(234,134)"/>
<path d="M0 0 C1.32 0 2.64 0 4 0 C4 0.66 4 1.32 4 2 C4.66 2 5.32 2 6 2 C5.67 3.32 5.34 4.64 5 6 C3.35 4.02 1.7 2.04 0 0 Z " fill="#878787" transform="translate(270,172)"/>
</svg>
